<?xml version="1.0" encoding="utf-8"?>
<!-- Generator: Adobe Illustrator 18.1.0, SVG Export Plug-In . SVG Version: 6.00 Build 0)  -->
<svg version="1.1" baseProfile="tiny" id="Layer_1" xmlns="http://www.w3.org/2000/svg" xmlns:xlink="http://www.w3.org/1999/xlink"
	 x="0px" y="0px" width="40.9px" height="40px" viewBox="0 0 40.9 40" xml:space="preserve">
<rect x="1.6" y="1.8" fill="#383562" width="37.8" height="36.7"/>
<g>
	<path fill="#D199FE" d="M0,0v40h40.9V0H0z M37.7,36.8H3.3V3.3h34.3V36.8z"/>
</g>
<g>
	<g>
		<path fill="#D199FE" d="M11.1,23.4l-1.5,4.9H6.4L11.9,11h4l5.6,17.3h-3.4l-1.6-4.9H11.1z M16.1,21l-1.4-4.3
			c-0.3-1.1-0.6-2.2-0.9-3.2h-0.1c-0.3,1-0.5,2.2-0.8,3.2L11.6,21H16.1z"/>
	</g>
</g>
<g>
	<g>
		<path fill="#D199FE" d="M25.8,22.9c0.1,2.3,1.8,3.2,3.8,3.2c1.5,0,2.5-0.2,3.5-0.6l0.5,2.2c-1.1,0.4-2.6,0.8-4.4,0.8
			c-4.1,0-6.4-2.5-6.4-6.3c0-3.5,2.1-6.7,6.1-6.7c4.1,0,5.4,3.3,5.4,6.1c0,0.6-0.1,1.1-0.1,1.3H25.8z M31.2,20.7
			c0-1.2-0.5-3.1-2.6-3.1c-1.9,0-2.8,1.8-2.9,3.1H31.2z"/>
	</g>
</g>
</svg>
