<?xml version="1.0" encoding="utf-8"?>
<!-- Generator: Adobe Illustrator 20.1.0, SVG Export Plug-In . SVG Version: 6.00 Build 0)  -->
<svg version="1.1" id="Layer_1" xmlns="http://www.w3.org/2000/svg" xmlns:xlink="http://www.w3.org/1999/xlink" x="0px" y="0px"
	 viewBox="0 0 40 40" style="enable-background:new 0 0 40 40;" xml:space="preserve">
<style type="text/css">
	.st0{fill:url(#SVGID_1_);}
	.st1{fill:#FFFFFF;}
	.st2{fill:#A3DAF6;}
</style>
<g>
	<linearGradient id="SVGID_1_" gradientUnits="userSpaceOnUse" x1="30.6939" y1="5.323" x2="7.5503" y2="32.1671">
		<stop  offset="0" style="stop-color:#00A8DC"/>
		<stop  offset="1" style="stop-color:#008AC1"/>
	</linearGradient>
	<path class="st0" d="M32.4,19.2c2.8-1.8,4.7-5.1,4.7-8.8C37,4.8,32.8,0.3,27.5,0v0H4.5v40h22.9c5.4,0,9.8-5,9.8-11.2
		C37.3,24.7,35.3,21.1,32.4,19.2z"/>
	<polygon class="st1" points="27.5,14.9 28.5,7.9 20.3,7.9 17.9,7.9 11.7,7.9 11.7,31.8 20.3,31.8 20.3,24.8 25.7,24.8 26.1,18.7 
		20.3,18.7 20.3,14.9 	"/>
	<polygon class="st2" points="13.9,10.5 20.1,10.5 22.6,10.5 28.1,10.5 28.5,7.9 20.3,7.9 17.9,7.9 11.7,7.9 11.7,31.8 13.9,31.8 	
		"/>
</g>
</svg>
