<?xml version="1.0" encoding="utf-8"?>
<!-- Generator: Adobe Illustrator 15.1.0, SVG Export Plug-In . SVG Version: 6.00 Build 0)  -->
<!DOCTYPE svg PUBLIC "-//W3C//DTD SVG 1.1 Tiny//EN" "http://www.w3.org/Graphics/SVG/1.1/DTD/svg11-tiny.dtd">
<svg version="1.1" baseProfile="tiny" id="Layer_1" xmlns="http://www.w3.org/2000/svg" xmlns:xlink="http://www.w3.org/1999/xlink"
	 x="0px" y="0px" width="35.555px" height="40px" viewBox="0 0 35.555 40" overflow="inherit" xml:space="preserve">
<polygon fill="#1F62AE" points="32.222,36.11 17.778,40 3.333,36.11 0,0 35.555,0 "/>
<polygon fill="#3C9BD5" points="17.777,2.925 17.777,36.898 17.81,36.907 29.5,33.76 32.198,2.925 "/>
<polygon fill="#FFFFFF" points="17.765,11.954 7.426,16.26 7.77,20.522 17.765,16.249 28.397,11.703 28.838,7.342 "/>
<polygon fill="#E5E5E5" points="7.426,16.26 7.77,20.522 17.765,16.249 17.765,11.954 "/>
<polygon fill="#F9F9F9" points="28.838,7.342 17.765,11.954 17.765,16.249 28.397,11.703 "/>
<polygon fill="#FFFFFF" points="7.442,16.26 7.785,20.522 23.122,20.571 22.779,26.255 17.732,27.676 12.881,26.451 12.587,22.924 
	8.079,22.924 8.667,29.734 17.781,32.429 26.845,29.783 28.022,16.26 "/>
<g>
	<polygon fill="#EBEBEB" points="17.765,16.26 7.426,16.26 7.77,20.522 17.765,20.555 	"/>
	<polygon fill="#EBEBEB" points="17.765,27.662 17.716,27.676 12.865,26.451 12.571,22.924 8.063,22.924 8.651,29.734 
		17.765,32.429 	"/>
</g>
<polygon fill="#FFFFFF" points="6.496,7.342 28.838,7.342 28.397,11.703 7.034,11.703 "/>
<polygon fill="#EBEBEB" points="17.765,7.342 6.496,7.342 7.034,11.703 17.765,11.703 "/>
</svg>
