<?xml version="1.0" encoding="utf-8"?>
<!-- Generator: Adobe Illustrator 18.1.0, SVG Export Plug-In . SVG Version: 6.00 Build 0)  -->
<svg version="1.1" baseProfile="tiny" id="Layer_1" xmlns="http://www.w3.org/2000/svg" xmlns:xlink="http://www.w3.org/1999/xlink"
	 x="0px" y="0px" width="40.9px" height="40px" viewBox="0 0 40.9 40" xml:space="preserve">
<rect x="1.6" y="1.8" fill="#405B34" width="37.8" height="36.7"/>
<path fill="#8DF008" d="M0,0v40h40.9V0H0z M37.7,36.8H3.3V3.3h34.3V36.8z"/>
<path fill="#8DF008" d="M6.1,11.4c1.2-0.2,2.8-0.4,4.5-0.4c2.9,0,4.8,0.7,6.3,2c1.5,1.3,2.4,3.3,2.4,6.2c0,3-0.9,5.3-2.4,6.7
	c-1.5,1.5-4,2.3-6.9,2.3c-1.6,0-2.9-0.1-3.8-0.2V11.4z M8.9,25.7c0.4,0.1,1,0.1,1.5,0.1c3.6,0,5.8-2.2,5.8-6.5
	c0-3.7-1.9-5.9-5.4-5.9c-0.9,0-1.5,0.1-1.9,0.2V25.7z"/>
<path fill="#8DF008" d="M22.3,15.8l1.1,5.5c0.2,1.3,0.5,2.6,0.7,4h0c0.2-1.3,0.6-2.7,0.9-3.9l1.4-5.6h2.2l1.3,5.4
	c0.3,1.4,0.6,2.8,0.9,4.1h0c0.2-1.3,0.4-2.7,0.7-4.1l1.2-5.4h2.7L32,28.1h-2.5l-1.3-5c-0.3-1.3-0.6-2.4-0.8-3.9h0
	c-0.2,1.5-0.5,2.7-0.8,3.9l-1.4,5h-2.5l-3.2-12.2H22.3z"/>
</svg>
