<?xml version="1.0" encoding="utf-8"?>
<!-- Generator: Adobe Illustrator 15.1.0, SVG Export Plug-In . SVG Version: 6.00 Build 0)  -->
<svg version="1.1" baseProfile="tiny" id="Layer_1" xmlns="http://www.w3.org/2000/svg" xmlns:xlink="http://www.w3.org/1999/xlink"
	 x="0px" y="0px" width="40px" height="40px" viewBox="0 0 40 40" xml:space="preserve">
<path fill-rule="evenodd" fill="#377EF0" d="M12.883,1.38c0.688-0.093,1.527-0.033,2.166-0.174c0.12,0.198,0.604,0.033,0.866,0.088
	c4.992,0.58,8.144,3.003,11.176,5.544c1.495,1.567,3.025,3.097,4.592,4.592c1.257,1.112,2.412,2.323,3.898,3.206
	c0.001,0.113,0.152,0.078,0.174,0.173c-0.46,1.532-0.762,3.224-1.387,4.592c-0.028,0-0.058,0-0.087,0
	C26.607,14.657,21.66,7.187,10.544,5.885c-0.464-0.144-1.528-0.144-1.993,0C7.229,5.919,6.256,6.304,5.172,6.578
	c0-0.028,0-0.058,0-0.087C5.613,6.124,6.018,5.72,6.385,5.278C8.303,3.73,10.251,2.214,12.883,1.38z"/>
<path fill-rule="evenodd" fill="#C7C7C7" d="M15.049,1.206c0.264,0.055,0.746-0.11,0.866,0.088
	C15.652,1.239,15.169,1.404,15.049,1.206z"/>
<path fill-rule="evenodd" fill="#C7C7C7" d="M8.551,5.885c0.465-0.144,1.529-0.144,1.993,0C9.88,5.885,9.215,5.885,8.551,5.885z"/>
<path fill-rule="evenodd" fill="#377EF0" d="M0.321,16.454c1.238-1.359,2.872-2.326,5.544-2.252
	c0.121,0.197,0.604,0.032,0.867,0.086c9.585,2.139,15.218,8.231,23.91,11.263c0,0.029,0,0.058,0,0.087
	c-1.478,1.611-3.068,3.11-4.938,4.332c-0.029,0-0.058,0-0.087,0c-7.034-0.544-14.267-4.092-20.706-5.372
	c-1.369-0.272-3.6-0.164-4.244,0.78C0.037,22.799-0.281,19.309,0.321,16.454z"/>
<path fill-rule="evenodd" fill="#C7C7C7" d="M5.865,14.202c0.264,0.055,0.746-0.111,0.867,0.086
	C6.469,14.234,5.986,14.399,5.865,14.202z"/>
<path fill-rule="evenodd" fill="#C7C7C7" d="M34.281,19.4c0.029,0,0.059,0,0.087,0c1.23,1.128,4.679,2.516,5.632,0.26
	c0.004,2.198-0.273,4.116-0.78,5.805c-1.827,2.175-6.181,1.168-8.577,0.173c0-0.029,0-0.058,0-0.087
	C32.132,23.777,33.477,21.858,34.281,19.4z"/>
<path fill-rule="evenodd" fill="#377EF0" d="M29.604,30.402c0.722,0,1.443,0,2.166,0C31.248,30.547,30.125,30.547,29.604,30.402z"/>
<path fill-rule="evenodd" fill="#F2F2F2" d="M5.172,6.491c0.369-0.44,0.773-0.845,1.213-1.213C6.018,5.72,5.613,6.124,5.172,6.491z"
	/>
<path fill-rule="evenodd" fill="#F2F2F2" d="M33.502,34.821c0.059-0.202,0.288-0.232,0.347-0.434
	c0.284-0.149,0.409-0.457,0.693-0.606C34.231,34.164,33.885,34.511,33.502,34.821z"/>
<path fill-rule="evenodd" fill="#F2F2F2" d="M35.581,14.636c-1.486-0.883-2.642-2.094-3.898-3.206
	c-1.494-1.567-3.025-3.097-4.592-4.592c-3.032-2.541-6.184-4.964-11.176-5.544c-0.12-0.198-0.603-0.033-0.866-0.088
	C14.41,1.347,13.57,1.287,12.883,1.38c8.628-3.625,19.346,0.605,23.045,6.498C35.778,9.276,36.358,12.924,35.581,14.636z"/>
<path fill-rule="evenodd" fill="#C7C7C7" d="M27.091,6.838c1.566,1.495,3.098,3.024,4.592,4.592
	C30.116,9.935,28.586,8.405,27.091,6.838z"/>
<path fill-rule="evenodd" fill="#F2F2F2" d="M10.544,5.885C21.66,7.187,26.607,14.657,34.281,19.4
	c-0.805,2.458-2.149,4.377-3.639,6.15c-8.692-3.031-14.325-9.124-23.91-11.263c-0.121-0.197-0.604-0.031-0.867-0.086
	c-2.672-0.074-4.306,0.893-5.544,2.252c0.726-4.184,2.526-7.291,4.851-9.876c1.084-0.274,2.057-0.659,3.379-0.693
	C9.215,5.885,9.88,5.885,10.544,5.885z"/>
<path fill-rule="evenodd" fill="#C7C7C7" d="M35.581,14.636c0.777-1.712,0.197-5.359,0.347-6.758
	c1.541,2.126,2.771,4.564,3.552,7.45c-0.996,0.589-2.809,0.169-3.725-0.52C35.733,14.714,35.582,14.749,35.581,14.636z"/>
<path fill-rule="evenodd" fill="#F2F2F2" d="M0.668,25.378c0.645-0.944,2.875-1.053,4.244-0.78
	c6.439,1.28,13.672,4.828,20.706,5.372c-4.562,4-16.041,4.775-21.919,1.646C2.385,29.841,1.41,27.725,0.668,25.378z"/>
<path fill-rule="evenodd" fill="#316AC5" d="M30.643,25.638c2.396,0.995,6.75,2.002,8.577-0.173c-0.366,1.163-0.717,2.344-1.3,3.292
	c-1.617,0.981-3.5,1.697-6.15,1.646c-0.723,0-1.444,0-2.166,0c-1.472,0.027-2.638-0.25-3.898-0.433
	C27.574,28.748,29.165,27.249,30.643,25.638z"/>
<path fill-rule="evenodd" fill="#316AC5" d="M11.757,38.199c-1.896-4.043,2.259-3.533,5.284-3.032
	c5.288,0.876,12.97,0.84,16.808-0.779c-0.059,0.201-0.288,0.231-0.347,0.434C29.435,39.343,18.664,41.878,11.757,38.199z"/>
<path fill-rule="evenodd" fill="#316AC5" d="M35.755,14.809c0.916,0.688,2.729,1.108,3.725,0.52
	c0.231,1.386,0.479,2.756,0.521,4.332c-0.953,2.256-4.401,0.868-5.632-0.26C34.993,18.032,35.295,16.341,35.755,14.809z"/>
<path fill-rule="evenodd" fill="#C7C7C7" d="M34.542,33.781c-0.284,0.149-0.409,0.457-0.693,0.606
	c-3.838,1.619-11.52,1.655-16.808,0.779c-3.025-0.501-7.18-1.011-5.284,3.032c-3.397-1.483-6.007-3.753-8.058-6.584
	c5.878,3.13,17.356,2.354,21.919-1.646c0.029,0,0.058,0,0.087,0c1.261,0.183,2.427,0.46,3.898,0.433
	c0.521,0.145,1.645,0.145,2.166,0c2.65,0.052,4.533-0.664,6.15-1.646C37.103,30.739,35.819,32.258,34.542,33.781z"/>
</svg>
