<?xml version="1.0" encoding="UTF-8" standalone="no"?>
<svg
   xmlns:dc="http://purl.org/dc/elements/1.1/"
   xmlns:cc="http://creativecommons.org/ns#"
   xmlns:rdf="http://www.w3.org/1999/02/22-rdf-syntax-ns#"
   xmlns:svg="http://www.w3.org/2000/svg"
   xmlns="http://www.w3.org/2000/svg"
   xmlns:inkscape="http://www.inkscape.org/namespaces/inkscape"
   version="1.1"
   width="64.891998"
   height="50"
   id="svg2"
   xml:space="preserve"><metadata
     id="metadata8"><rdf:RDF><cc:Work
         rdf:about=""><dc:format>image/svg+xml</dc:format><dc:type
           rdf:resource="http://purl.org/dc/dcmitype/StillImage" /></cc:Work></rdf:RDF></metadata><defs
     id="defs6"><clipPath
       id="clipPath16"><path
         d="m 0,40 51.914,0 0,-40 L 0,0 0,40 z"
         inkscape:connector-curvature="0"
         id="path18" /></clipPath><clipPath
       id="clipPath40"><path
         d="m 38.516,18.247 c -0.447,-0.789 -1.332,-2.655 -1.778,-3.444 l 0,0 8.484,-6.68 0.49,0.819 c -0.209,1.129 -0.537,2.254 -1.186,3.212 l 0,0 c -1.9,2.935 -3.623,5.978 -5.529,8.908 l 0,0 c 0.031,-0.953 0.02,-1.968 -0.481,-2.815"
         inkscape:connector-curvature="0"
         id="path42" /></clipPath><radialGradient
       cx="0"
       cy="0"
       r="1"
       fx="0"
       fy="0"
       id="radialGradient48"
       gradientUnits="userSpaceOnUse"
       gradientTransform="matrix(6.3198352,4.6273227,-7.1103868,9.7109671,45.847282,7.846138)"
       spreadMethod="pad"><stop
         id="stop50"
         style="stop-color:#daac3a;stop-opacity:1"
         offset="0" /><stop
         id="stop52"
         style="stop-color:#f6c540;stop-opacity:1"
         offset="1" /></radialGradient><clipPath
       id="clipPath60"><path
         d="m 6.147,30.843 c 0.23,-0.89 0.497,-1.784 0.957,-2.586 l 0,0 c 1.831,-2.894 3.629,-5.671 5.47,-8.56 l 0,0 c 0.182,-0.379 0.291,-0.337 0.311,0.057 l 0,0 c 0.363,2.113 1.699,3.848 2.587,5.75 l 0,0 c -2.828,2.247 -5.655,4.494 -8.483,6.741 l 0,0 C 6.709,31.778 6.428,31.31 6.147,30.843"
         inkscape:connector-curvature="0"
         id="path62" /></clipPath><radialGradient
       cx="0"
       cy="0"
       r="1"
       fx="0"
       fy="0"
       id="radialGradient68"
       gradientUnits="userSpaceOnUse"
       gradientTransform="matrix(7.3898029,-8.952673,4.8976107,4.042932,5.622365,31.497932)"
       spreadMethod="pad"><stop
         id="stop70"
         style="stop-color:#b63a33;stop-opacity:1"
         offset="0" /><stop
         id="stop72"
         style="stop-color:#d43f36;stop-opacity:1"
         offset="1" /></radialGradient></defs><g
     transform="matrix(1.25,0,0,-1.25,0,50)"
     id="g10"><g
       id="g12"><g
         clip-path="url(#clipPath16)"
         id="g14"><g
           transform="translate(13.7454,39.964)"
           id="g20"><path
             d="m 0,0 c -1.59,0.02 -2.956,-1.105 -3.633,-2.481 -1.322,-2.212 -2.644,-4.425 -3.966,-6.637 1.585,-4.187 4.141,-7.961 6.663,-11.624 0.113,1.022 0.26,2.158 0.902,3.001 3.262,5.329 6.522,10.661 9.786,15.987 C 10.461,-0.892 9.688,0.182 8.657,0.02 5.772,0.031 2.886,0.004 0,0"
             inkscape:connector-curvature="0"
             id="path22"
             style="fill:#d43f36;fill-opacity:1;fill-rule:nonzero;stroke:none" /></g><g
           transform="translate(28.2143,39.3971)"
           id="g24"><path
             d="M 0,0 C 0.287,0.657 1.117,0.523 1.698,0.572 L 9.945,0.55 c 1.326,0.006 2.599,-0.747 3.275,-1.881 l 9.896,-16.111 c 0.772,-1.164 0.783,-2.771 0,-3.932 -1.892,-3.018 -3.68,-6.099 -5.619,-9.08 -0.208,1.128 -0.537,2.253 -1.185,3.212 -1.901,2.935 -3.623,5.977 -5.529,8.907 L 0.397,-1.566 C 0.126,-1.098 -0.211,-0.559 0,0"
             inkscape:connector-curvature="0"
             id="path26"
             style="fill:#0f9d56;fill-opacity:1;fill-rule:nonzero;stroke:none" /></g><g
           transform="translate(6.1468,30.8429)"
           id="g28"><path
             d="m 0,0 c 2.298,-4.078 4.416,-8.266 7.039,-12.151 3.399,-5.564 6.798,-11.131 10.199,-16.692 1.014,-1.395 -0.33,-2.005 -1.65,-2 -2.737,0.014 -5.475,-0.016 -8.211,0.026 -1.483,0.081 -2.697,1.103 -3.338,2.389 -3.245,5.283 -6.51,10.554 -9.741,15.845 -0.713,1.238 -0.544,2.805 0.329,3.908 C -3.582,-5.783 -1.791,-2.892 0,0"
             inkscape:connector-curvature="0"
             id="path30"
             style="fill:#557ebe;fill-opacity:1;fill-rule:nonzero;stroke:none" /></g><g
           transform="translate(38.9987,21.0633)"
           id="g32"><path
             d="m 0,0 c 0.089,-1.162 -0.093,-2.374 -0.801,-3.327 -3.248,-5.313 -6.52,-10.613 -9.752,-15.933 -0.579,-0.876 0.079,-1.755 1.039,-1.725 l 8.859,-0.043 c 1.54,0.056 2.885,1.109 3.53,2.477 1.241,2.165 2.564,4.283 3.841,6.428 C 6.515,-10.716 5.912,-9.42 5.12,-8.255 3.414,-5.503 1.707,-2.752 0,0"
             inkscape:connector-curvature="0"
             id="path34"
             style="fill:#f6c540;fill-opacity:1;fill-rule:nonzero;stroke:none" /></g></g></g><g
       id="g36"><g
         clip-path="url(#clipPath40)"
         id="g38"><g
           id="g44"><g
             id="g46"><path
               d="m 38.516,18.247 c -0.447,-0.789 -1.332,-2.655 -1.778,-3.444 l 0,0 8.484,-6.68 0.49,0.819 c -0.209,1.129 -0.537,2.254 -1.186,3.212 l 0,0 c -1.9,2.935 -3.623,5.978 -5.529,8.908 l 0,0 c 0.031,-0.953 0.02,-1.968 -0.481,-2.815"
               inkscape:connector-curvature="0"
               id="path54"
               style="fill:url(#radialGradient48);stroke:none" /></g></g></g></g><g
       id="g56"><g
         clip-path="url(#clipPath60)"
         id="g58"><g
           id="g64"><g
             id="g66"><path
               d="m 6.147,30.843 c 0.23,-0.89 0.497,-1.784 0.957,-2.586 l 0,0 c 1.831,-2.894 3.629,-5.671 5.47,-8.56 l 0,0 c 0.182,-0.379 0.291,-0.337 0.311,0.057 l 0,0 c 0.363,2.113 1.699,3.848 2.587,5.75 l 0,0 c -2.828,2.247 -5.655,4.494 -8.483,6.741 l 0,0 C 6.709,31.778 6.428,31.31 6.147,30.843"
               inkscape:connector-curvature="0"
               id="path74"
               style="fill:url(#radialGradient68);stroke:none" /></g></g></g></g></g></svg>