<?xml version="1.0" encoding="utf-8"?>
<!-- Generator: Adobe Illustrator 19.1.0, SVG Export Plug-In . SVG Version: 6.00 Build 0)  -->
<svg version="1.1" baseProfile="tiny" id="Layer_1" xmlns="http://www.w3.org/2000/svg" xmlns:xlink="http://www.w3.org/1999/xlink"
	 x="0px" y="0px" width="40px" height="40px" viewBox="0 0 40 40" xml:space="preserve">
<rect fill="#D34A47" width="40" height="40"/>
<g>
	<g>
		<path fill="#FFFFFF" d="M11.9,20.5c0,0-0.1,0.2-0.1,0.3c-0.1,0.2-0.1,0.4-0.2,0.7c-0.1,0.3-0.2,0.6-0.3,1
			c-0.1,0.4-0.2,0.7-0.3,1.1c-0.1,0.4-0.2,0.7-0.3,1.1c-0.1,0.4-0.2,0.7-0.3,1c-0.1,0.3-0.2,0.5-0.2,0.7C10,26.7,10,26.8,10,26.8
			c0,0.1-0.1,0.2-0.1,0.4c-0.1,0.1-0.1,0.3-0.2,0.4c-0.1,0.1-0.2,0.2-0.3,0.3C9.2,28,9.1,28,9,28c-0.2,0-0.3-0.1-0.4-0.2
			c-0.1-0.1-0.1-0.4-0.1-0.7c0-0.1,0-0.1,0-0.2c0-0.1,0-0.1,0-0.2c0-0.1,0.1-0.3,0.1-0.7c0.1-0.3,0.2-0.7,0.3-1.1
			c0.1-0.4,0.3-0.8,0.4-1.3c0.1-0.4,0.3-0.8,0.4-1.2c-0.3,0.4-0.7,0.7-1.1,1.1c-0.4,0.4-0.8,0.7-1.2,1C7,25,6.6,25.2,6.2,25.4
			c-0.4,0.2-0.8,0.3-1.2,0.3c-0.4,0-0.8-0.1-1.1-0.3c-0.3-0.2-0.6-0.4-0.8-0.7c-0.2-0.3-0.4-0.7-0.5-1c-0.1-0.4-0.1-0.8-0.1-1.2
			c0-0.1,0-0.1,0-0.1c0,0,0-0.1,0-0.1c0-0.7,0.1-1.4,0.3-2.2c0.2-0.7,0.4-1.5,0.6-2.2c0.3-0.7,0.6-1.4,0.9-2.1
			c0.3-0.7,0.7-1.4,1.1-2c0.4-0.6,0.8-1.2,1.3-1.7c0.5-0.5,0.9-1,1.4-1.4c0.5-0.4,1-0.7,1.5-0.9c0.5-0.2,1-0.3,1.5-0.3
			c0.6,0,1.1,0.2,1.6,0.5c0.5,0.3,1,0.8,1.5,1.5c0.1,0.2,0.2,0.3,0.2,0.5c0,0.2,0,0.3,0,0.4c0,0.3-0.1,0.6-0.2,0.8
			c-0.2,0.2-0.3,0.3-0.6,0.3c-0.2,0-0.4-0.1-0.6-0.3c-0.2-0.2-0.4-0.5-0.6-0.9c-0.2-0.4-0.4-0.6-0.7-0.8c-0.2-0.2-0.5-0.2-0.8-0.2
			c-0.4,0-0.9,0.2-1.4,0.5c-0.5,0.4-1,0.8-1.5,1.4c-0.5,0.6-0.9,1.3-1.4,2c-0.4,0.8-0.8,1.5-1.2,2.3C5.5,18.2,5.2,19,5,19.8
			c-0.2,0.8-0.3,1.5-0.3,2.1c0,0.2,0,0.4,0,0.6c0,0.2,0.1,0.4,0.2,0.6c0.1,0.2,0.2,0.3,0.3,0.4c0.1,0.1,0.3,0.2,0.5,0.2
			c0.2,0,0.5-0.1,0.8-0.2c0.3-0.2,0.6-0.4,0.9-0.6C7.7,22.6,8,22.3,8.3,22c0.3-0.3,0.6-0.6,0.9-1c0.3-0.3,0.5-0.6,0.7-0.9
			c0.2-0.3,0.4-0.6,0.5-0.8l0.9-2.6c0.1-0.3,0.2-0.5,0.4-0.6c0.2-0.1,0.3-0.2,0.5-0.2c0.1,0,0.2,0,0.3,0c0.1,0,0.2,0.1,0.2,0.1
			s0.1,0.1,0.2,0.2c0,0.1,0.1,0.2,0.1,0.3c0,0.4,0,0.7-0.1,1c-0.1,0.3-0.1,0.6-0.2,0.9c-0.1,0.3-0.2,0.6-0.3,0.9
			C12.1,19.8,12,20.1,11.9,20.5z"/>
		<path fill="#FFFFFF" d="M9,28.1c-0.2,0-0.4-0.1-0.5-0.2c-0.1-0.1-0.1-0.4-0.1-0.8V27c0-0.1,0-0.1,0-0.2c0-0.1,0.1-0.3,0.1-0.7
			c0.1-0.3,0.2-0.7,0.3-1.1c0.1-0.4,0.3-0.8,0.4-1.3c0.1-0.3,0.2-0.6,0.3-0.9c-0.3,0.3-0.6,0.6-0.9,0.9c-0.4,0.4-0.8,0.7-1.2,1
			C7,25,6.6,25.3,6.2,25.5c-0.4,0.2-0.8,0.3-1.2,0.3c-0.4,0-0.8-0.1-1.2-0.3C3.5,25.3,3.2,25,3,24.7c-0.2-0.3-0.4-0.7-0.5-1.1
			c-0.1-0.4-0.2-0.8-0.2-1.2v-0.1c0,0,0-0.1,0-0.1c0-0.7,0.1-1.4,0.3-2.2c0.2-0.7,0.4-1.5,0.6-2.2C3.6,17,4,16.3,4.3,15.6
			c0.3-0.7,0.7-1.4,1.1-2c0.4-0.6,0.9-1.2,1.3-1.7c0.5-0.5,0.9-1,1.4-1.4c0.5-0.4,1-0.7,1.5-0.9c1.1-0.5,2.2-0.4,3.2,0.1
			c0.5,0.3,1,0.8,1.5,1.5c0.1,0.2,0.2,0.3,0.2,0.5c0,0.2,0,0.3,0,0.5c0,0.3-0.1,0.6-0.3,0.8c-0.2,0.2-0.4,0.3-0.6,0.3
			c-0.2,0-0.4-0.1-0.6-0.3c-0.2-0.2-0.4-0.5-0.6-0.9c-0.2-0.3-0.4-0.6-0.6-0.7c-0.6-0.4-1.3-0.3-2.1,0.3c-0.5,0.4-1,0.8-1.4,1.4
			c-0.5,0.6-0.9,1.3-1.4,2c-0.4,0.8-0.8,1.5-1.2,2.3c-0.3,0.8-0.6,1.6-0.8,2.3c-0.2,0.8-0.3,1.5-0.3,2.1c0,0.2,0,0.4,0,0.6
			c0,0.2,0.1,0.4,0.2,0.6c0.1,0.2,0.2,0.3,0.3,0.4c0.3,0.2,0.7,0.2,1.2-0.1C6.7,23.2,7,23,7.3,22.8c0.3-0.2,0.6-0.5,0.9-0.8
			c0.3-0.3,0.6-0.6,0.9-1c0.3-0.3,0.5-0.6,0.7-0.9c0.2-0.3,0.4-0.5,0.5-0.8l0.9-2.6c0.1-0.3,0.3-0.5,0.4-0.6
			c0.3-0.2,0.6-0.2,0.8-0.1c0.1,0,0.2,0.1,0.3,0.2c0.1,0.1,0.1,0.2,0.2,0.3c0,0.1,0.1,0.2,0.1,0.4c0,0.4,0,0.7-0.1,1
			c-0.1,0.3-0.1,0.6-0.2,0.9c-0.1,0.3-0.2,0.6-0.3,0.9c-0.1,0.3-0.2,0.6-0.3,0.9l0,0c0,0,0,0.1-0.1,0.3c-0.1,0.2-0.1,0.4-0.2,0.7
			c-0.1,0.3-0.2,0.6-0.3,1c-0.1,0.4-0.2,0.7-0.3,1.1c-0.1,0.4-0.2,0.7-0.3,1.1c-0.1,0.4-0.2,0.7-0.3,1c-0.1,0.3-0.2,0.5-0.2,0.7
			c-0.1,0.2-0.1,0.3-0.1,0.4c0,0.1-0.1,0.3-0.2,0.4c-0.1,0.1-0.2,0.3-0.2,0.4c-0.1,0.1-0.2,0.2-0.3,0.3C9.2,28.1,9.1,28.1,9,28.1z
			 M9.8,22.3l-0.1,0.3c-0.1,0.3-0.2,0.7-0.4,1.2c-0.1,0.4-0.3,0.9-0.4,1.3c-0.1,0.4-0.2,0.8-0.3,1.1c-0.1,0.3-0.1,0.5-0.1,0.6
			c0,0.1,0,0.1,0,0.2v0.2c0,0.3,0,0.6,0.1,0.7C8.7,27.9,8.8,28,9,28c0.1,0,0.2,0,0.3-0.1c0.1-0.1,0.2-0.2,0.3-0.3
			c0.1-0.1,0.2-0.3,0.2-0.4c0.1-0.1,0.1-0.3,0.1-0.4c0,0,0-0.2,0.1-0.4c0.1-0.2,0.1-0.4,0.2-0.7c0.1-0.3,0.2-0.6,0.3-1
			c0.1-0.4,0.2-0.7,0.3-1.1c0.1-0.4,0.2-0.7,0.3-1.1c0.1-0.4,0.2-0.7,0.3-1c0.1-0.3,0.2-0.5,0.2-0.7c0.1-0.2,0.1-0.3,0.1-0.4
			c0.1-0.3,0.2-0.6,0.3-0.9c0.1-0.3,0.2-0.6,0.3-0.9c0.1-0.3,0.2-0.6,0.2-0.9c0.1-0.3,0.1-0.6,0.1-1c0-0.1,0-0.2-0.1-0.3
			c0-0.1-0.1-0.2-0.1-0.2c-0.1-0.1-0.1-0.1-0.2-0.1c-0.2-0.1-0.5,0-0.7,0.1c-0.2,0.1-0.3,0.3-0.4,0.6l-0.9,2.6
			c-0.1,0.2-0.3,0.5-0.5,0.8c-0.2,0.3-0.5,0.6-0.7,0.9c-0.3,0.3-0.6,0.6-0.9,1c-0.3,0.3-0.6,0.6-0.9,0.9c-0.3,0.3-0.6,0.5-0.9,0.6
			c-0.6,0.3-1.1,0.3-1.4,0.1c-0.1-0.1-0.3-0.3-0.3-0.5c-0.1-0.2-0.1-0.4-0.2-0.6c0-0.2,0-0.4,0-0.6c0-0.6,0.1-1.3,0.3-2.1
			c0.2-0.8,0.5-1.6,0.8-2.4c0.3-0.8,0.7-1.6,1.2-2.3c0.4-0.8,0.9-1.4,1.4-2c0.5-0.6,1-1.1,1.5-1.4c0.8-0.6,1.6-0.7,2.2-0.3
			c0.2,0.2,0.5,0.4,0.7,0.8c0.2,0.4,0.4,0.7,0.6,0.9c0.2,0.2,0.3,0.3,0.5,0.3c0.2,0,0.4-0.1,0.5-0.3c0.1-0.2,0.2-0.4,0.2-0.7
			c0-0.1,0-0.3,0-0.4c0-0.1-0.1-0.3-0.2-0.4c-0.5-0.7-0.9-1.2-1.5-1.5c-1-0.6-2-0.6-3-0.1c-0.5,0.2-1,0.5-1.5,0.9
			c-0.5,0.4-1,0.8-1.4,1.3c-0.5,0.5-0.9,1.1-1.3,1.7c-0.4,0.6-0.8,1.3-1.1,2c-0.3,0.7-0.7,1.4-0.9,2.1C3.2,18.5,3,19.3,2.9,20
			c-0.2,0.7-0.3,1.5-0.3,2.2c0,0,0,0.1,0,0.1v0.1c0,0.4,0,0.8,0.1,1.1c0.1,0.4,0.2,0.7,0.4,1c0.2,0.3,0.5,0.5,0.8,0.7
			c0.3,0.2,0.7,0.3,1.1,0.3c0.4,0,0.8-0.1,1.1-0.3c0.4-0.2,0.8-0.4,1.2-0.7c0.4-0.3,0.8-0.6,1.2-1c0.4-0.4,0.7-0.7,1.1-1.1L9.8,22.3
			z"/>
	</g>
	<g>
		<path fill="#FFFFFF" d="M23.6,22.6c-0.3,0.4-0.6,0.7-0.9,1.1c-0.4,0.3-0.7,0.7-1.1,0.9c-0.4,0.3-0.8,0.5-1.1,0.7
			c-0.4,0.2-0.7,0.2-1,0.2s-0.5-0.1-0.7-0.3c-0.2-0.2-0.3-0.5-0.3-1c0-0.3,0-0.7,0.1-1.2c-0.2,0.3-0.4,0.6-0.6,0.9
			c-0.2,0.3-0.5,0.6-0.8,0.8c-0.3,0.2-0.7,0.4-1,0.6c-0.4,0.1-0.8,0.2-1.3,0.2c-0.2,0-0.4,0-0.6-0.1c-0.2-0.1-0.4-0.1-0.5-0.3
			c-0.1-0.1-0.3-0.3-0.3-0.5c-0.1-0.2-0.1-0.5-0.1-0.8c0,0,0-0.1,0-0.3c0-0.2,0.1-0.6,0.2-1c0.1-0.5,0.3-1.1,0.6-1.8
			c0.3-0.7,0.7-1.6,1.2-2.7c0.1-0.3,0.3-0.5,0.4-0.6c0.2-0.1,0.4-0.2,0.6-0.2c0.1,0,0.2,0,0.3,0c0.1,0,0.2,0.1,0.3,0.1
			c0.1,0.1,0.1,0.1,0.2,0.2c0,0.1,0.1,0.2,0.1,0.3c0,0.1,0,0.1,0,0.2c0,0.1-0.1,0.3-0.2,0.5c-0.1,0.2-0.2,0.4-0.4,0.7
			c-0.1,0.3-0.3,0.5-0.4,0.8c-0.2,0.3-0.3,0.6-0.4,0.9c-0.1,0.3-0.2,0.6-0.3,1c-0.1,0.3-0.1,0.7-0.2,1c0,0.1,0,0.3,0.1,0.4
			c0.1,0.1,0.2,0.2,0.3,0.2c0.4,0,0.8-0.1,1.1-0.4c0.4-0.3,0.7-0.6,1-1c0.3-0.4,0.6-0.8,0.8-1.3c0.3-0.5,0.5-0.9,0.6-1.2
			c0.1-0.2,0.2-0.5,0.3-0.8c0.1-0.3,0.2-0.5,0.3-0.8c0.1-0.2,0.2-0.4,0.4-0.6c0.1-0.2,0.3-0.2,0.5-0.2c0.2,0,0.4,0.1,0.5,0.3
			c0.1,0.2,0.2,0.4,0.2,0.6c0,0.1,0,0.3-0.1,0.5c-0.1,0.2-0.2,0.5-0.3,0.8c-0.1,0.3-0.3,0.6-0.4,0.9c-0.1,0.3-0.3,0.7-0.4,1
			c-0.1,0.3-0.2,0.7-0.3,1c-0.1,0.3-0.1,0.6-0.1,0.9c0,0.3,0.1,0.4,0.4,0.4c0.2,0,0.4-0.1,0.7-0.2c0.3-0.1,0.6-0.3,0.9-0.6
			c0.3-0.2,0.6-0.5,0.9-0.8c0.3-0.3,0.6-0.7,0.8-1L23.6,22.6z"/>
		<path fill="#FFFFFF" d="M19.4,25.6c-0.3,0-0.6-0.1-0.8-0.3c-0.2-0.2-0.3-0.6-0.3-1.1c0-0.2,0-0.5,0.1-0.8
			c-0.1,0.2-0.3,0.4-0.4,0.5c-0.2,0.3-0.5,0.6-0.8,0.8c-0.3,0.2-0.7,0.4-1.1,0.6c-0.4,0.2-0.8,0.2-1.3,0.2c-0.2,0-0.4,0-0.6-0.1
			c-0.2-0.1-0.4-0.1-0.5-0.3c-0.1-0.1-0.3-0.3-0.4-0.5c-0.1-0.2-0.1-0.5-0.1-0.8c0,0,0,0,0-0.3c0-0.2,0.1-0.6,0.2-1
			c0.1-0.5,0.3-1.1,0.6-1.8c0.3-0.7,0.7-1.6,1.2-2.7c0.1-0.3,0.3-0.5,0.5-0.6c0.3-0.2,0.6-0.2,0.9-0.2c0.1,0,0.2,0.1,0.3,0.1
			c0.1,0.1,0.2,0.1,0.2,0.2c0.1,0.1,0.1,0.2,0.1,0.3c0,0.1,0,0.2,0,0.2c0,0.1-0.1,0.3-0.2,0.5c-0.1,0.2-0.2,0.4-0.4,0.7
			c-0.1,0.3-0.3,0.5-0.4,0.8c-0.1,0.3-0.3,0.6-0.4,0.9c-0.1,0.3-0.2,0.6-0.3,1c-0.1,0.3-0.1,0.6-0.2,1c0,0.1,0,0.2,0.1,0.3
			c0,0.1,0.1,0.1,0.2,0.1c0.4,0,0.8-0.1,1.1-0.4c0.4-0.3,0.7-0.6,1-1c0.3-0.4,0.6-0.8,0.8-1.3c0.2-0.4,0.5-0.9,0.6-1.2
			c0.1-0.2,0.2-0.5,0.3-0.8c0.1-0.3,0.2-0.6,0.3-0.8c0.1-0.2,0.2-0.5,0.4-0.6c0.1-0.2,0.3-0.3,0.6-0.3c0.2,0,0.4,0.1,0.6,0.3
			c0.1,0.2,0.2,0.4,0.2,0.6c0,0.1,0,0.3-0.1,0.6c-0.1,0.2-0.2,0.5-0.3,0.8c-0.1,0.3-0.3,0.6-0.4,1c-0.1,0.3-0.3,0.7-0.4,1
			c-0.1,0.3-0.2,0.7-0.3,1c-0.1,0.3-0.1,0.6-0.1,0.9c0,0.2,0.1,0.3,0.3,0.3c0.2,0,0.4-0.1,0.7-0.2c0.3-0.1,0.6-0.3,0.9-0.5
			c0.3-0.2,0.6-0.5,0.9-0.8c0.3-0.3,0.6-0.7,0.8-1l0.1-0.2l0.1,1.7l0,0c-0.3,0.4-0.6,0.7-1,1.1c-0.4,0.3-0.7,0.7-1.1,0.9
			c-0.4,0.3-0.8,0.5-1.1,0.7C20.1,25.5,19.7,25.6,19.4,25.6z M18.7,22.6L18.6,23c-0.1,0.4-0.1,0.8-0.1,1.2c0,0.5,0.1,0.8,0.3,1
			c0.2,0.2,0.4,0.3,0.7,0.3c0.3,0,0.6-0.1,1-0.2c0.4-0.2,0.7-0.4,1.1-0.6c0.4-0.3,0.8-0.6,1.1-0.9c0.3-0.3,0.7-0.7,0.9-1l-0.1-1.3
			c-0.2,0.3-0.5,0.6-0.7,0.9c-0.3,0.3-0.6,0.6-0.9,0.8c-0.3,0.2-0.6,0.4-0.9,0.6c-0.3,0.1-0.5,0.2-0.7,0.2c-0.3,0-0.5-0.2-0.5-0.5
			c0-0.3,0-0.6,0.1-0.9c0.1-0.3,0.2-0.7,0.3-1c0.1-0.3,0.3-0.7,0.4-1c0.1-0.3,0.3-0.7,0.4-0.9c0.1-0.3,0.2-0.6,0.3-0.8
			c0.1-0.2,0.1-0.4,0.1-0.5c0-0.2-0.1-0.4-0.2-0.6c-0.1-0.2-0.3-0.2-0.5-0.2c-0.2,0-0.3,0.1-0.5,0.2c-0.1,0.2-0.2,0.4-0.4,0.6
			c-0.1,0.2-0.2,0.5-0.3,0.8c-0.1,0.3-0.2,0.6-0.3,0.8c-0.2,0.4-0.4,0.8-0.6,1.2c-0.3,0.5-0.5,0.9-0.8,1.3c-0.3,0.4-0.7,0.7-1,1
			c-0.4,0.3-0.8,0.4-1.2,0.4c-0.2,0-0.3-0.1-0.4-0.2c-0.1-0.1-0.1-0.3-0.1-0.4c0-0.3,0.1-0.7,0.2-1c0.1-0.3,0.2-0.7,0.3-1
			c0.1-0.3,0.3-0.6,0.4-0.9c0.2-0.3,0.3-0.6,0.4-0.8c0.1-0.3,0.3-0.5,0.4-0.7c0.1-0.2,0.2-0.4,0.2-0.5c0-0.1,0-0.1,0-0.2
			c0-0.1,0-0.2-0.1-0.3c0-0.1-0.1-0.1-0.2-0.2c-0.1-0.1-0.2-0.1-0.2-0.1c-0.3-0.1-0.5,0-0.8,0.1c-0.2,0.1-0.3,0.3-0.4,0.6
			c-0.5,1-0.9,2-1.2,2.7c-0.3,0.7-0.5,1.3-0.6,1.8c-0.1,0.5-0.2,0.8-0.2,1c0,0.2,0,0.3,0,0.3c0,0.3,0,0.6,0.1,0.8
			c0.1,0.2,0.2,0.4,0.3,0.5c0.1,0.1,0.3,0.2,0.5,0.2c0.2,0,0.4,0.1,0.6,0.1c0.4,0,0.9-0.1,1.2-0.2c0.4-0.1,0.7-0.3,1-0.6
			c0.3-0.2,0.6-0.5,0.8-0.8c0.2-0.3,0.4-0.6,0.6-0.9L18.7,22.6z"/>
	</g>
	<g>
		<path fill="#FFFFFF" d="M23.9,22.1c-0.1,0.2-0.1,0.4-0.2,0.6c-0.1,0.2-0.1,0.4-0.1,0.6c0,0.1,0,0.2,0.1,0.3c0,0.1,0.1,0.1,0.2,0.1
			c0.1,0,0.3,0,0.5-0.1c0.2-0.1,0.4-0.2,0.6-0.4c0.2-0.1,0.5-0.3,0.7-0.5c0.2-0.2,0.5-0.4,0.7-0.6c0.2-0.2,0.5-0.4,0.7-0.6
			c0.2-0.2,0.4-0.4,0.6-0.6c0-0.1,0.1-0.1,0.2-0.1c0.1,0,0.1,0,0.2,0c0.1,0,0.2,0.1,0.3,0.2c0.1,0.1,0.1,0.2,0.1,0.4
			c0,0.2,0,0.3-0.1,0.5c-0.1,0.2-0.2,0.4-0.5,0.6c-0.4,0.4-0.8,0.8-1.2,1.2c-0.4,0.4-0.8,0.7-1.2,1c-0.4,0.3-0.8,0.5-1.2,0.7
			c-0.4,0.2-0.8,0.3-1.1,0.3c-0.3,0-0.5,0-0.6-0.1c-0.2-0.1-0.3-0.2-0.4-0.3c-0.1-0.1-0.2-0.3-0.2-0.5c0-0.2-0.1-0.4-0.1-0.6
			c0-0.4,0-0.7,0.1-1.1c0.1-0.4,0.2-0.7,0.3-1c0.2-0.6,0.4-1.1,0.7-1.7c0.2-0.6,0.4-1.1,0.6-1.5l2.8-7.1c0.1-0.3,0.3-0.5,0.4-0.6
			c0.2-0.1,0.4-0.2,0.6-0.2c0.2,0,0.4,0.1,0.5,0.2c0.2,0.1,0.2,0.3,0.2,0.6c0,0.1,0,0.3-0.1,0.4c-0.1,0.1-0.1,0.3-0.2,0.5
			c-0.2,0.3-0.3,0.8-0.6,1.3c-0.2,0.5-0.4,1-0.7,1.6c-0.2,0.6-0.5,1.2-0.8,1.8c-0.3,0.6-0.5,1.2-0.8,1.8c-0.2,0.6-0.5,1.2-0.7,1.7
			C24.2,21.2,24,21.7,23.9,22.1z"/>
		<path fill="#FFFFFF" d="M23.2,25.6c-0.3,0-0.5,0-0.7-0.1c-0.2-0.1-0.3-0.2-0.4-0.4c-0.1-0.1-0.2-0.3-0.2-0.5
			c0-0.2-0.1-0.4-0.1-0.6c0-0.4,0-0.7,0.1-1.1c0.1-0.4,0.2-0.7,0.3-1c0.2-0.6,0.4-1.1,0.7-1.7c0.2-0.6,0.4-1.1,0.6-1.5l2.8-7.1
			c0.1-0.3,0.3-0.5,0.5-0.6c0.4-0.2,0.8-0.3,1.2,0c0.2,0.1,0.3,0.4,0.3,0.7c0,0.1,0,0.3-0.1,0.4c-0.1,0.1-0.1,0.3-0.2,0.5
			c-0.1,0.3-0.3,0.7-0.6,1.3c-0.2,0.5-0.4,1-0.7,1.6c-0.3,0.6-0.5,1.2-0.8,1.8c-0.3,0.6-0.5,1.2-0.8,1.8c-0.2,0.6-0.5,1.2-0.7,1.7
			c-0.2,0.5-0.4,1-0.6,1.4l0,0c-0.1,0.2-0.1,0.4-0.2,0.6c-0.1,0.2-0.1,0.4-0.1,0.6c0,0.1,0,0.2,0,0.2c0,0,0,0.1,0.2,0.1
			c0.1,0,0.3,0,0.5-0.1c0.2-0.1,0.4-0.2,0.6-0.4c0.2-0.1,0.5-0.3,0.7-0.5c0.2-0.2,0.5-0.4,0.7-0.6c0.2-0.2,0.5-0.4,0.7-0.6
			c0.2-0.2,0.4-0.4,0.6-0.6c0.1-0.1,0.1-0.1,0.2-0.1c0.1,0,0.1,0,0.2,0c0.1,0,0.3,0.1,0.4,0.2c0.1,0.1,0.1,0.3,0.1,0.4
			c0,0.2,0,0.3-0.1,0.5c-0.1,0.2-0.2,0.4-0.5,0.6c-0.4,0.4-0.8,0.8-1.2,1.2c-0.4,0.4-0.8,0.7-1.2,1c-0.4,0.3-0.8,0.5-1.2,0.7
			C23.9,25.5,23.5,25.6,23.2,25.6z M27.4,10.8c-0.2,0-0.4,0.1-0.5,0.2c-0.2,0.1-0.3,0.3-0.4,0.6l-2.8,7.1c-0.2,0.5-0.4,1-0.6,1.5
			c-0.2,0.6-0.4,1.1-0.7,1.7c-0.1,0.3-0.2,0.7-0.3,1c-0.1,0.4-0.1,0.7-0.1,1.1c0,0.2,0,0.4,0.1,0.6c0,0.2,0.1,0.3,0.2,0.5
			c0.1,0.1,0.2,0.2,0.4,0.3c0.2,0.1,0.4,0.1,0.6,0.1c0.4,0,0.7-0.1,1.1-0.3c0.4-0.2,0.8-0.4,1.2-0.7c0.4-0.3,0.8-0.6,1.2-1
			c0.4-0.4,0.8-0.8,1.2-1.2c0.2-0.2,0.4-0.4,0.4-0.5c0.1-0.2,0.1-0.3,0.1-0.5c0-0.2,0-0.3-0.1-0.4c-0.1-0.1-0.1-0.1-0.3-0.1
			c0,0-0.1,0-0.2,0c-0.1,0-0.1,0-0.1,0.1c-0.2,0.2-0.4,0.4-0.6,0.6c-0.2,0.2-0.5,0.4-0.7,0.6c-0.2,0.2-0.5,0.4-0.7,0.6
			c-0.2,0.2-0.5,0.4-0.7,0.5c-0.2,0.2-0.4,0.3-0.6,0.4c-0.2,0.1-0.4,0.1-0.5,0.1c-0.2,0-0.2-0.1-0.3-0.1c0-0.1-0.1-0.2-0.1-0.3
			c0-0.2,0-0.4,0.1-0.6c0.1-0.2,0.1-0.4,0.2-0.6c0.2-0.4,0.3-0.9,0.6-1.4c0.2-0.5,0.4-1.1,0.7-1.7c0.2-0.6,0.5-1.2,0.8-1.8
			c0.2-0.6,0.5-1.2,0.8-1.8c0.2-0.6,0.5-1.1,0.7-1.6c0.2-0.5,0.4-0.9,0.6-1.3c0.1-0.2,0.1-0.3,0.2-0.5c0-0.1,0.1-0.3,0.1-0.4
			c0-0.3-0.1-0.4-0.2-0.5C27.7,10.8,27.6,10.8,27.4,10.8z"/>
	</g>
	<g>
		<path fill="#FFFFFF" d="M37,20.1c0.1-0.1,0.2-0.1,0.2-0.1c0.1,0,0.1-0.1,0.2-0.1c0.1,0,0.2,0.1,0.3,0.2c0.1,0.1,0.1,0.3,0.1,0.4
			c0,0.2,0,0.4-0.1,0.6c-0.1,0.2-0.2,0.4-0.4,0.5c-0.7,0.6-1.3,1.1-1.8,1.6c-0.5,0.5-1,0.9-1.5,1.2c-0.5,0.3-0.9,0.6-1.3,0.8
			s-0.9,0.3-1.4,0.3c-0.5,0-0.8-0.1-1.1-0.3c-0.3-0.2-0.4-0.5-0.4-0.8c0,0,0-0.1,0-0.1c0,0,0-0.1,0-0.1c0-0.2,0.1-0.5,0.3-0.8
			c0.2-0.3,0.4-0.6,0.6-0.9s0.5-0.6,0.8-0.9c0.3-0.3,0.5-0.6,0.7-0.9c0.2-0.3,0.4-0.5,0.6-0.8c0.1-0.2,0.2-0.4,0.2-0.6
			c0-0.1,0-0.2-0.1-0.2c-0.1-0.1-0.2-0.1-0.3-0.1c-0.2,0-0.5,0.1-0.8,0.2c-0.3,0.1-0.5,0.3-0.8,0.5c-0.3,0.2-0.5,0.5-0.8,0.7
			c-0.2,0.3-0.5,0.6-0.7,0.9c-0.2,0.3-0.4,0.6-0.6,0.9c-0.2,0.3-0.3,0.6-0.4,0.8c0,0.1-0.1,0.2-0.2,0.3c-0.1,0.1-0.1,0.3-0.2,0.5
			c-0.1,0.2-0.2,0.4-0.3,0.6c-0.1,0.2-0.2,0.4-0.2,0.5c-0.1,0.2-0.1,0.3-0.2,0.5c-0.1,0.1-0.1,0.2-0.1,0.3c0,0.1-0.1,0.2-0.2,0.4
			c-0.1,0.2-0.2,0.4-0.2,0.6c-0.1,0.2-0.2,0.5-0.3,0.8c-0.1,0.3-0.2,0.5-0.3,0.8c-0.1,0.2-0.2,0.5-0.2,0.6c-0.1,0.2-0.1,0.3-0.1,0.4
			c-0.1,0.2-0.1,0.4-0.2,0.5c-0.1,0.2-0.2,0.3-0.3,0.4c-0.1,0.1-0.2,0.2-0.4,0.3c-0.1,0.1-0.3,0.1-0.5,0.1c-0.2,0-0.4-0.1-0.6-0.2
			C24.1,30.5,24,30.3,24,30c0-0.1,0-0.3,0.1-0.4c0-0.2,0.1-0.3,0.1-0.5c0.1-0.2,0.1-0.3,0.2-0.4c0.1-0.1,0.1-0.3,0.2-0.4
			c0.3-0.7,0.7-1.5,1-2.2c0.3-0.7,0.7-1.5,1-2.2c0.3-0.7,0.6-1.4,0.9-2.1c0.3-0.7,0.5-1.4,0.7-2c0-0.1,0.1-0.3,0.2-0.6
			c0.1-0.2,0.2-0.5,0.3-0.7c0.1-0.2,0.2-0.4,0.4-0.6c0.1-0.2,0.3-0.3,0.4-0.3c0.2,0,0.4,0.1,0.5,0.2c0.1,0.1,0.2,0.3,0.2,0.5
			c0,0,0,0.1,0,0.2c0,0.1,0,0.2,0,0.3c0,0.1,0,0.2-0.1,0.3c0,0.1,0,0.2-0.1,0.2c0.2-0.2,0.5-0.5,0.7-0.7c0.3-0.2,0.5-0.5,0.8-0.7
			c0.3-0.2,0.6-0.4,0.9-0.5c0.3-0.1,0.6-0.2,0.9-0.2c0.2,0,0.4,0,0.6,0.1c0.2,0.1,0.4,0.1,0.5,0.3c0.2,0.1,0.3,0.3,0.4,0.4
			c0.1,0.2,0.1,0.4,0.1,0.6c0,0.3-0.1,0.6-0.2,1c-0.2,0.3-0.3,0.7-0.6,1c-0.2,0.3-0.5,0.7-0.7,1c-0.3,0.3-0.5,0.6-0.7,0.9
			c-0.2,0.3-0.4,0.5-0.6,0.7c-0.2,0.2-0.2,0.3-0.2,0.4c0,0.1,0,0.2,0.1,0.2c0.1,0.1,0.1,0.1,0.3,0.1c0.1,0,0.3-0.1,0.5-0.2
			c0.2-0.1,0.5-0.3,0.9-0.6c0.4-0.3,0.8-0.7,1.4-1.2C35.5,21.4,36.2,20.8,37,20.1z"/>
		<path fill="#FFFFFF" d="M24.8,30.9c-0.2,0-0.4-0.1-0.6-0.2c-0.2-0.1-0.2-0.3-0.2-0.7c0-0.2,0-0.3,0.1-0.5c0-0.2,0.1-0.3,0.1-0.5
			c0.1-0.2,0.1-0.3,0.2-0.4c0.1-0.1,0.1-0.3,0.2-0.4c0.3-0.7,0.7-1.5,1-2.2c0.3-0.7,0.7-1.5,1-2.2c0.3-0.7,0.6-1.4,0.9-2.1
			c0.3-0.7,0.5-1.4,0.7-2c0.1-0.1,0.1-0.3,0.2-0.6c0.1-0.2,0.2-0.5,0.3-0.7c0.1-0.2,0.2-0.4,0.4-0.6c0.2-0.2,0.3-0.3,0.5-0.3
			c0.3,0,0.5,0.1,0.6,0.2c0.1,0.1,0.2,0.3,0.2,0.5c0,0,0,0.1,0,0.2c0,0.1,0,0.2,0,0.3c0,0.1,0,0.2,0,0.2c0.2-0.2,0.4-0.4,0.6-0.5
			c0.3-0.2,0.5-0.5,0.8-0.7c0.3-0.2,0.6-0.4,0.9-0.5c0.5-0.2,1-0.2,1.5-0.1c0.2,0.1,0.4,0.2,0.6,0.3c0.2,0.1,0.3,0.3,0.4,0.5
			c0.1,0.2,0.2,0.4,0.2,0.6c0,0.3-0.1,0.6-0.2,1c-0.2,0.3-0.3,0.7-0.6,1c-0.2,0.3-0.5,0.7-0.7,1c-0.3,0.3-0.5,0.6-0.7,0.9
			c-0.2,0.3-0.4,0.5-0.6,0.7c-0.2,0.2-0.2,0.3-0.2,0.3c0,0.1,0,0.1,0.1,0.2c0,0,0.1,0.1,0.2,0.1c0.1,0,0.2,0,0.4-0.2
			c0.2-0.1,0.5-0.3,0.8-0.6c0.4-0.3,0.8-0.7,1.4-1.2c0.6-0.5,1.2-1.1,2.1-1.8l0,0c0.1-0.1,0.2-0.1,0.2-0.1c0.3-0.1,0.5-0.1,0.6,0.2
			c0.1,0.1,0.1,0.3,0.1,0.5c0,0.2,0,0.4-0.1,0.6c-0.1,0.2-0.2,0.4-0.4,0.5c-0.7,0.6-1.3,1.1-1.8,1.6c-0.5,0.5-1,0.9-1.5,1.3
			c-0.5,0.3-0.9,0.6-1.4,0.8c-0.4,0.2-0.9,0.3-1.4,0.3c-0.5,0-0.9-0.1-1.1-0.3c-0.3-0.2-0.4-0.5-0.4-0.9v-0.1c0,0,0-0.1,0-0.1
			c0-0.2,0.1-0.5,0.3-0.8c0.2-0.3,0.4-0.6,0.6-0.9c0.2-0.3,0.5-0.6,0.8-0.9c0.3-0.3,0.5-0.6,0.7-0.9c0.2-0.3,0.4-0.5,0.6-0.8
			c0.1-0.2,0.2-0.4,0.2-0.5c0-0.1,0-0.1-0.1-0.2c0,0-0.1-0.1-0.3-0.1c-0.2,0-0.5,0.1-0.7,0.2c-0.3,0.1-0.5,0.3-0.8,0.5
			c-0.3,0.2-0.5,0.5-0.7,0.7c-0.2,0.3-0.5,0.6-0.7,0.9c-0.2,0.3-0.4,0.6-0.6,0.9c-0.2,0.3-0.3,0.6-0.4,0.8c0,0.1-0.1,0.2-0.2,0.3
			c-0.1,0.1-0.1,0.3-0.2,0.5c-0.1,0.2-0.2,0.4-0.3,0.6c-0.1,0.2-0.2,0.4-0.2,0.5l-0.2,0.5c-0.1,0.1-0.1,0.2-0.1,0.3
			c0,0.1-0.1,0.2-0.2,0.4c-0.1,0.2-0.2,0.4-0.2,0.6l-0.3,0.8c-0.1,0.3-0.2,0.5-0.3,0.8l-0.2,0.6c-0.1,0.2-0.1,0.3-0.1,0.4
			c-0.1,0.2-0.1,0.4-0.2,0.5c-0.1,0.2-0.2,0.3-0.3,0.5c-0.1,0.1-0.2,0.2-0.4,0.3C25.1,30.8,25,30.9,24.8,30.9z M29.4,17.7
			c-0.1,0-0.3,0.1-0.4,0.2c-0.1,0.2-0.3,0.4-0.4,0.6c-0.1,0.2-0.2,0.5-0.3,0.7c-0.1,0.2-0.2,0.4-0.2,0.6c-0.2,0.6-0.4,1.3-0.7,2
			c-0.3,0.7-0.6,1.4-0.9,2.1c-0.3,0.7-0.6,1.4-1,2.2c-0.3,0.7-0.7,1.5-1,2.2c0,0.1-0.1,0.3-0.2,0.4c-0.1,0.1-0.1,0.3-0.2,0.4
			c-0.1,0.1-0.1,0.3-0.1,0.4c0,0.1-0.1,0.3-0.1,0.4c0,0.3,0.1,0.5,0.2,0.6c0.1,0.1,0.3,0.1,0.5,0.1c0.2,0,0.3,0,0.4-0.1
			c0.1-0.1,0.2-0.2,0.4-0.3c0.1-0.1,0.2-0.3,0.3-0.4c0.1-0.2,0.2-0.3,0.2-0.5c0-0.1,0.1-0.2,0.1-0.4l0.2-0.6
			c0.1-0.2,0.2-0.5,0.3-0.8l0.3-0.8c0.1-0.2,0.2-0.5,0.2-0.6c0.1-0.2,0.1-0.3,0.2-0.4c0-0.1,0.1-0.1,0.1-0.3l0.2-0.5
			c0.1-0.2,0.2-0.4,0.2-0.6c0.1-0.2,0.2-0.4,0.3-0.6c0.1-0.2,0.2-0.3,0.2-0.5c0.1-0.1,0.1-0.3,0.2-0.3c0.1-0.3,0.3-0.5,0.5-0.8
			c0.2-0.3,0.4-0.6,0.6-0.9c0.2-0.3,0.4-0.6,0.7-0.9c0.2-0.3,0.5-0.5,0.8-0.7c0.3-0.2,0.5-0.4,0.8-0.5c0.3-0.1,0.5-0.2,0.8-0.2
			c0.2,0,0.3,0,0.4,0.1c0.1,0.1,0.1,0.2,0.1,0.3c0,0.2-0.1,0.4-0.2,0.6c-0.1,0.2-0.3,0.5-0.6,0.8c-0.2,0.3-0.5,0.6-0.7,0.9
			c-0.3,0.3-0.5,0.6-0.7,0.9c-0.2,0.3-0.4,0.6-0.6,0.9C30.1,23.7,30,24,30,24.2c0,0,0,0.1,0,0.1v0.1c0,0.3,0.1,0.6,0.4,0.8
			c0.2,0.2,0.6,0.3,1,0.3c0.5,0,1-0.1,1.4-0.3c0.4-0.2,0.9-0.5,1.3-0.8c0.5-0.3,0.9-0.8,1.5-1.2c0.5-0.5,1.1-1,1.8-1.6
			c0.2-0.1,0.3-0.3,0.4-0.5c0.1-0.2,0.1-0.4,0.1-0.6c0-0.2,0-0.3-0.1-0.4c-0.1-0.1-0.1-0.1-0.2-0.1c-0.1,0-0.1,0-0.2,0
			c-0.1,0-0.1,0.1-0.2,0.1c-0.9,0.8-1.5,1.4-2.1,1.8c-0.6,0.5-1,0.9-1.4,1.2c-0.4,0.3-0.7,0.5-0.9,0.6c-0.2,0.1-0.4,0.2-0.5,0.2
			c-0.2,0-0.3,0-0.3-0.1c-0.1-0.1-0.1-0.2-0.1-0.3c0-0.1,0-0.2,0.3-0.4c0.2-0.2,0.4-0.4,0.6-0.7c0.2-0.3,0.5-0.6,0.7-0.9
			c0.3-0.3,0.5-0.7,0.7-1c0.2-0.3,0.4-0.7,0.6-1c0.1-0.3,0.2-0.6,0.2-0.9c0-0.2,0-0.4-0.1-0.6c-0.1-0.2-0.2-0.3-0.4-0.4
			c-0.2-0.1-0.3-0.2-0.5-0.2c-0.5-0.1-1-0.1-1.4,0.1c-0.3,0.1-0.6,0.3-0.9,0.5c-0.3,0.2-0.6,0.4-0.8,0.7c-0.3,0.2-0.5,0.5-0.7,0.7
			l-0.3,0.3l0.2-0.4c0,0,0-0.1,0.1-0.2c0-0.1,0-0.2,0.1-0.3c0-0.1,0-0.2,0-0.3c0-0.1,0-0.2,0-0.2c0-0.2,0-0.4-0.1-0.5
			C29.8,17.8,29.7,17.7,29.4,17.7z"/>
	</g>
</g>
</svg>
