<?xml version="1.0" encoding="utf-8"?>
<!-- Generator: Adobe Illustrator 18.1.0, SVG Export Plug-In . SVG Version: 6.00 Build 0)  -->
<svg version="1.1" baseProfile="tiny" id="Layer_1" xmlns="http://www.w3.org/2000/svg" xmlns:xlink="http://www.w3.org/1999/xlink"
	 x="0px" y="0px" width="35.3px" height="40px" viewBox="0 0 35.3 40" xml:space="preserve">
<polygon fill="#E44D26" points="3.2,36 0,0 35.3,0 32.1,36 17.6,40 "/>
<polygon fill="#F16529" points="17.6,36.9 29.3,33.7 32.1,2.9 17.6,2.9 "/>
<polygon fill="#EBEBEB" points="17.6,16.3 11.8,16.3 11.4,11.8 17.6,11.8 17.6,7.4 17.6,7.4 6.6,7.4 6.7,8.5 7.8,20.7 17.6,20.7 "/>
<polygon fill="#EBEBEB" points="17.6,27.8 17.6,27.8 12.7,26.4 12.4,22.9 10,22.9 8,22.9 8.6,29.9 17.6,32.4 17.6,32.4 "/>
<polygon fill="#FFFFFF" points="17.6,16.3 17.6,20.7 23.1,20.7 22.5,26.4 17.6,27.8 17.6,32.4 26.7,29.9 26.7,29.1 27.8,17.5 
	27.9,16.3 26.7,16.3 "/>
<polygon fill="#FFFFFF" points="17.6,7.4 17.6,10.1 17.6,11.8 17.6,11.8 28.3,11.8 28.3,11.8 28.3,11.8 28.4,10.8 28.6,8.5 
	28.7,7.4 "/>
</svg>
