<?xml version="1.0" encoding="utf-8"?>
<!-- Generator: Adobe Illustrator 18.1.0, SVG Export Plug-In . SVG Version: 6.00 Build 0)  -->
<svg version="1.1" baseProfile="tiny" id="Layer_1" xmlns="http://www.w3.org/2000/svg" xmlns:xlink="http://www.w3.org/1999/xlink"
	 x="0px" y="0px" width="40.9px" height="40px" viewBox="0 0 40.9 40" xml:space="preserve">
<rect x="1.6" y="1.8" fill="#644D2A" width="37.8" height="36.7"/>
<path fill="#FDBF55" d="M0,0v40h40.9V0H0z M37.7,36.8H3.3V3.3h34.3V36.8z"/>
<path fill="#FDBF55" d="M14.9,23.4l-1.5,4.8h-3.2l5.4-16.9h3.9l5.5,16.9h-3.3l-1.5-4.8H14.9z M19.8,21.1l-1.3-4.2
	c-0.3-1-0.6-2.2-0.9-3.2h-0.1c-0.3,1-0.5,2.2-0.8,3.2l-1.3,4.2H19.8z"/>
<path fill="#FDBF55" d="M29.6,12.5c0,0.9-0.7,1.7-1.8,1.7c-1,0-1.7-0.7-1.7-1.7c0-1,0.7-1.7,1.7-1.7C29,10.9,29.6,11.6,29.6,12.5z
	 M26.3,28.2V16h3.1v12.2H26.3z"/>
</svg>
