<?xml version="1.0" encoding="utf-8"?>
<!-- Generator: Adobe Illustrator 18.1.0, SVG Export Plug-In . SVG Version: 6.00 Build 0)  -->
<svg version="1.1" baseProfile="tiny" id="Layer_1" xmlns="http://www.w3.org/2000/svg" xmlns:xlink="http://www.w3.org/1999/xlink"
	 x="0px" y="0px" width="40.9px" height="40px" viewBox="0 0 40.9 40" xml:space="preserve">
<rect x="1.6" y="1.8" fill="#602D44" width="37.8" height="36.7"/>
<g>
	<path fill="#E954AB" d="M0,0v40h40.9V0H0z M37.7,36.8H3.3V3.3h34.3V36.8z"/>
</g>
<g>
	<path fill="#E954AB" d="M15.2,11.2v16.9h-3.1V11.2H15.2z"/>
</g>
<g>
	<path fill="#E954AB" d="M28.7,10.3v14.4c0,1.3,0,2.6,0.1,3.4h-2.5l-0.1-1.9h0c-0.7,1.4-2,2.2-3.7,2.2c-2.7,0-4.8-2.5-4.8-6.3
		c0-4.1,2.3-6.5,5-6.5c1.5,0,2.6,0.7,3.1,1.6h0v-6.9H28.7z M25.8,21c0-0.3,0-0.6-0.1-0.8C25.5,19,24.6,18,23.3,18
		c-1.8,0-2.8,1.8-2.8,4c0,2.2,1,3.9,2.8,3.9c1.1,0,2.2-0.9,2.4-2.2c0.1-0.3,0.1-0.6,0.1-0.9V21z"/>
</g>
</svg>
