<?xml version="1.0" encoding="utf-8"?>
<!-- Generator: Adobe Illustrator 15.1.0, SVG Export Plug-In . SVG Version: 6.00 Build 0)  -->
<!DOCTYPE svg PUBLIC "-//W3C//DTD SVG 1.1 Tiny//EN" "http://www.w3.org/Graphics/SVG/1.1/DTD/svg11-tiny.dtd">
<svg version="1.1" baseProfile="tiny" id="Layer_1" xmlns="http://www.w3.org/2000/svg" xmlns:xlink="http://www.w3.org/1999/xlink"
	 x="0px" y="0px" width="40px" height="40px" viewBox="0 0 40 40" overflow="inherit" xml:space="preserve">
<g>
	<rect fill="#FADD33" width="40" height="40"/>
</g>
<g>
	<path fill="#343432" d="M10.503,33.396l3.057-1.85c0.59,1.046,1.126,1.931,2.413,1.931c1.234,0,2.011-0.482,2.011-2.359V18.353
		h3.754V31.17c0,3.889-2.279,5.658-5.604,5.658C13.132,36.828,11.389,35.273,10.503,33.396"/>
	<path fill="#343432" d="M23.777,32.994l3.057-1.771c0.805,1.314,1.851,2.279,3.7,2.279c1.556,0,2.548-0.777,2.548-1.85
		c0-1.287-1.02-1.743-2.735-2.494l-0.938-0.402c-2.708-1.152-4.505-2.601-4.505-5.657c0-2.816,2.146-4.961,5.497-4.961
		c2.387,0,4.103,0.832,5.336,3.003l-2.923,1.877c-0.644-1.152-1.341-1.608-2.413-1.608c-1.1,0-1.797,0.697-1.797,1.608
		c0,1.126,0.697,1.582,2.307,2.279l0.938,0.402c3.19,1.368,4.987,2.762,4.987,5.899c0,3.379-2.654,5.229-6.221,5.229
		C27.129,36.828,24.877,35.166,23.777,32.994"/>
</g>
</svg>
