<?xml version="1.0" encoding="utf-8"?>
<!-- Generator: Adobe Illustrator 18.1.0, SVG Export Plug-In . SVG Version: 6.00 Build 0)  -->
<svg version="1.1" baseProfile="tiny" id="Layer_1" xmlns="http://www.w3.org/2000/svg" xmlns:xlink="http://www.w3.org/1999/xlink"
	 x="0px" y="0px" width="41.5px" height="40px" viewBox="0 0 41.5 40" xml:space="preserve">
<g>
	<path fill="#79CDF3" d="M2.6,8.4C-1,13.7-0.6,20.6,2.2,26.2c0.1,0.1,0.1,0.3,0.2,0.4c0,0.1,0.1,0.2,0.1,0.3c0,0,0.1,0.1,0.1,0.1
		c0,0.1,0.1,0.2,0.1,0.3c0.1,0.2,0.2,0.3,0.3,0.5c0.1,0.1,0.1,0.2,0.2,0.3c0.1,0.2,0.2,0.3,0.3,0.5c0,0.1,0.1,0.1,0.1,0.2
		c0.1,0.2,0.3,0.4,0.4,0.7c0,0,0,0,0,0c0,0,0.1,0.1,0.1,0.1c0.1,0.2,0.3,0.4,0.4,0.5c0,0.1,0.1,0.1,0.2,0.2c0.1,0.2,0.3,0.3,0.4,0.5
		c0,0.1,0.1,0.1,0.1,0.2c0.2,0.2,0.3,0.4,0.5,0.6c0,0,0,0,0,0c0,0,0,0,0,0C6,31.6,6.2,31.8,6.4,32c0.1,0.1,0.1,0.1,0.2,0.2
		c0.1,0.1,0.3,0.3,0.4,0.4c0.1,0.1,0.1,0.1,0.2,0.2c0.2,0.2,0.4,0.4,0.6,0.5c0,0,0,0,0,0c0,0,0.1,0.1,0.1,0.1
		c0.2,0.2,0.4,0.3,0.5,0.5c0.1,0.1,0.1,0.1,0.2,0.2c0.2,0.1,0.3,0.2,0.5,0.3c0.1,0.1,0.2,0.1,0.2,0.2c0.2,0.1,0.3,0.2,0.5,0.4
		c0.1,0,0.1,0.1,0.2,0.1c0,0,0,0,0,0c0.2,0.1,0.3,0.2,0.5,0.3c0.1,0,0.1,0.1,0.2,0.1c0.3,0.2,0.5,0.3,0.8,0.5c0.1,0,0.1,0.1,0.2,0.1
		c0.2,0.1,0.4,0.2,0.6,0.3c0.1,0.1,0.2,0.1,0.3,0.2c0.1,0.1,0.3,0.1,0.4,0.2c0,0,0.1,0,0.1,0c0.1,0,0.1,0.1,0.2,0.1
		c0.2,0.1,0.4,0.2,0.7,0.3c0,0,0.1,0,0.1,0.1c0.2,0.1,0.5,0.2,0.8,0.3c0.1,0,0.1,0,0.2,0.1c0.2,0.1,0.5,0.2,0.7,0.3c0,0,0.1,0,0.1,0
		c0.3,0.1,0.5,0.2,0.8,0.3c0.1,0,0.1,0,0.2,0.1c0.3,0.1,0.5,0.2,0.8,0.2c17.8,3.2,22.9-10.7,22.9-10.7c-4.3,5.6-12,7.1-19.3,5.5
		c-0.3-0.1-0.5-0.1-0.8-0.2c-0.1,0-0.1,0-0.2-0.1c-0.3-0.1-0.5-0.2-0.8-0.3c0,0-0.1,0-0.1,0c-0.2-0.1-0.5-0.2-0.7-0.3
		c-0.1,0-0.1-0.1-0.2-0.1c-0.3-0.1-0.5-0.2-0.7-0.3c-0.1,0-0.1,0-0.2-0.1c-0.2-0.1-0.4-0.2-0.6-0.3c-0.1,0-0.1-0.1-0.2-0.1
		c-0.2-0.1-0.3-0.2-0.5-0.2c-0.1-0.1-0.2-0.1-0.3-0.2c-0.2-0.1-0.4-0.2-0.6-0.3c-0.1,0-0.1-0.1-0.2-0.1c-0.3-0.2-0.5-0.3-0.8-0.5
		c-0.1,0-0.1-0.1-0.2-0.1c-0.2-0.1-0.4-0.2-0.5-0.4c-0.1,0-0.1-0.1-0.2-0.1c-0.2-0.1-0.3-0.2-0.5-0.4c-0.1-0.1-0.1-0.1-0.2-0.2
		c-0.2-0.1-0.3-0.2-0.5-0.4c-0.1-0.1-0.1-0.1-0.2-0.2c-0.2-0.2-0.4-0.3-0.6-0.5c0,0,0,0-0.1-0.1c-0.2-0.2-0.4-0.4-0.6-0.5
		c-0.1-0.1-0.1-0.1-0.2-0.2c-0.1-0.1-0.3-0.3-0.4-0.4c-0.1-0.1-0.1-0.1-0.2-0.2c-0.2-0.2-0.4-0.4-0.5-0.6c0,0,0,0,0,0
		c-0.2-0.2-0.4-0.4-0.5-0.6c0-0.1-0.1-0.1-0.1-0.2c-0.1-0.2-0.3-0.3-0.4-0.5c0-0.1-0.1-0.1-0.1-0.2c-0.2-0.2-0.3-0.4-0.4-0.6
		C3.7,18.6,2.3,11,5.5,4.8"/>
	<path fill="#79CDF3" d="M14.1,3.9c-2.7,3.8-2.5,8.9-0.4,13c0.3,0.7,0.7,1.3,1.2,2c0.4,0.6,0.8,1.2,1.4,1.7c0.2,0.2,0.4,0.4,0.6,0.6
		c0.1,0.1,0.1,0.1,0.2,0.2c0.2,0.2,0.4,0.4,0.6,0.6c0,0,0,0,0,0c0,0,0,0,0,0c0.2,0.2,0.5,0.4,0.7,0.6c0.1,0,0.1,0.1,0.2,0.1
		c0.2,0.2,0.5,0.4,0.7,0.5c0,0,0,0,0,0c0.1,0.1,0.2,0.2,0.3,0.2c0.1,0,0.1,0.1,0.2,0.1c0.2,0.1,0.4,0.2,0.6,0.3c0,0,0.1,0,0.1,0
		c0.2,0.1,0.3,0.2,0.5,0.3c0.1,0,0.1,0.1,0.2,0.1c0.1,0.1,0.2,0.1,0.3,0.2c0,0,0,0,0.1,0c0.2,0.1,0.5,0.2,0.7,0.3
		c0.1,0,0.1,0,0.2,0.1c0.2,0.1,0.4,0.2,0.6,0.2c0.1,0,0.2,0.1,0.2,0.1c0.2,0.1,0.4,0.1,0.5,0.2c0.1,0,0.2,0.1,0.2,0.1
		c0.3,0.1,0.5,0.2,0.8,0.2c13.7,2.3,16.9-8.3,16.9-8.3c-2.9,4.1-8.4,6.1-14.3,4.5c-0.3-0.1-0.5-0.1-0.8-0.2c-0.1,0-0.2,0-0.2-0.1
		c-0.2-0.1-0.4-0.1-0.5-0.2c-0.1,0-0.2-0.1-0.2-0.1c-0.2-0.1-0.4-0.2-0.6-0.2c-0.1,0-0.1,0-0.2-0.1c-0.2-0.1-0.5-0.2-0.7-0.3
		c-0.1-0.1-0.2-0.1-0.4-0.2c-0.1,0-0.1-0.1-0.2-0.1c-0.2-0.1-0.3-0.2-0.5-0.3c0,0-0.1,0-0.1-0.1c-0.2-0.1-0.4-0.2-0.5-0.3
		c-0.1,0-0.1-0.1-0.2-0.1c-0.1-0.1-0.2-0.2-0.4-0.2c-0.2-0.2-0.5-0.4-0.7-0.5c-0.1,0-0.1-0.1-0.2-0.1c-2.6-2-4.6-4.8-5.6-8
		c-1-3.3-0.8-7,1-9.9"/>
	<path fill="#79CDF3" d="M23.6,0.6c-1.6,2.3-1.7,5.2-0.6,7.7c1.2,2.7,3.5,4.8,6.2,5.8c0.1,0,0.2,0.1,0.3,0.1c0.1,0,0.1,0,0.2,0
		c0.2,0,0.3,0.1,0.5,0.1c7.6,1.5,9.6-3.9,10.2-4.7c-1.8,2.6-4.8,3.2-8.5,2.3c-0.3-0.1-0.6-0.2-0.9-0.3c-0.4-0.1-0.7-0.3-1.1-0.4
		c-0.7-0.3-1.3-0.7-1.9-1.1C24.7,7.7,22.7,2.9,24.8-1"/>
</g>
</svg>
