<?xml version="1.0" encoding="utf-8"?>
<!-- Generator: Adobe Illustrator 19.1.0, SVG Export Plug-In . SVG Version: 6.00 Build 0)  -->
<svg version="1.1" baseProfile="tiny" id="Layer_1" xmlns="http://www.w3.org/2000/svg" xmlns:xlink="http://www.w3.org/1999/xlink"
	 x="0px" y="0px" width="36px" height="40px" viewBox="0 0 35.5 40" xml:space="preserve">
<path fill="#80BD01" d="M17.7,40c-0.5,0-1.1-0.1-1.5-0.4l-4.9-2.9c-0.7-0.4-0.4-0.6-0.1-0.6c1-0.3,1.2-0.4,2.2-1
	c0.1-0.1,0.3,0,0.4,0l3.8,2.2c0.1,0.1,0.3,0.1,0.5,0l14.7-8.5c0.1-0.1,0.2-0.2,0.2-0.4V11.5c0-0.2-0.1-0.3-0.2-0.4L18,2.7
	c-0.1-0.1-0.3-0.1-0.5,0L2.9,11.1c-0.1,0.1-0.2,0.2-0.2,0.4v16.9c0,0.2,0.1,0.3,0.2,0.4l4,2.3c2.2,1.1,3.5-0.2,3.5-1.5V13
	c0-0.2,0.2-0.4,0.4-0.4h1.9c0.2,0,0.4,0.2,0.4,0.4v16.7c0,2.9-1.6,4.6-4.3,4.6c-0.8,0-1.5,0-3.4-0.9l-3.8-2.2
	C0.6,30.6,0,29.6,0,28.5V11.5c0-1.1,0.6-2.1,1.5-2.7l14.7-8.5c0.9-0.5,2.2-0.5,3.1,0l14.7,8.5c0.9,0.5,1.5,1.6,1.5,2.7v16.9
	c0,1.1-0.6,2.1-1.5,2.7l-14.7,8.5C18.8,39.9,18.3,40,17.7,40z"/>
<path fill="#80BD01" d="M22.3,28.3c-6.4,0-7.8-2.9-7.8-5.4c0-0.2,0.2-0.4,0.4-0.4h1.9c0.2,0,0.4,0.2,0.4,0.4c0.3,1.9,1.1,2.9,5,2.9
	c3.1,0,4.4-0.7,4.4-2.3c0-0.9-0.4-1.6-5.2-2.1c-4-0.4-6.5-1.3-6.5-4.5c0-3,2.5-4.7,6.7-4.7c4.7,0,7,1.6,7.3,5.1c0,0.1,0,0.2-0.1,0.3
	c-0.1,0.1-0.2,0.1-0.3,0.1h-1.9c-0.2,0-0.4-0.1-0.4-0.3c-0.5-2-1.6-2.7-4.6-2.7c-3.4,0-3.8,1.2-3.8,2.1c0,1.1,0.5,1.4,5,2
	c4.5,0.6,6.6,1.4,6.6,4.6C29.6,26.5,26.9,28.3,22.3,28.3z"/>
</svg>
