<?xml version="1.0" encoding="utf-8"?>
<!-- Generator: Adobe Illustrator 18.1.0, SVG Export Plug-In . SVG Version: 6.00 Build 0)  -->
<svg version="1.1" baseProfile="tiny" id="Layer_1" xmlns="http://www.w3.org/2000/svg" xmlns:xlink="http://www.w3.org/1999/xlink"
	 x="0px" y="0px" width="78.9px" height="40px" viewBox="0 0 78.9 40" xml:space="preserve">
<g>
	<path fill="#6280B6" d="M59.2,15h-2.7L55,22h2.1c1.7,0,3-0.2,3.9-0.8c0.8-0.6,1.4-1.6,1.6-3.1c0.3-1.4,0.2-2.1-0.3-2.6
		C62,15.1,61.2,15,59.2,15z"/>
	<path fill="#6280B6" d="M22.4,15h-2.7l-1.5,7h2.1c1.7,0,3-0.2,3.9-0.8c0.8-0.6,1.4-1.6,1.6-3.1c0.3-1.4,0.2-2.1-0.3-2.6
		C25.2,15.1,24.4,15,22.4,15z"/>
	<path fill="#6280B6" d="M39.5,0C17.7,0,0,9,0,20c0,11,17.7,20,39.5,20c21.8,0,39.5-9,39.5-20C78.9,9,61.3,0,39.5,0z M42.1,27
		c-0.2,0-0.4-0.1-0.5-0.2c-0.1-0.1-0.2-0.3-0.1-0.5l1.9-9.6c0.2-1.2,0-1.4-0.1-1.5c-0.1-0.1-0.5-0.2-1.9-0.2h-3.2l-2.3,11.7
		C35.8,27,35.5,27,35.2,27h-4.7c-0.2,0-0.4-0.1-0.5-0.2c-0.1-0.1-0.2-0.3-0.1-0.5l0.8-4.3c-0.5,0.9-1.2,1.7-2,2.5
		c-1,0.9-2.1,1.6-3.4,2c-1.2,0.4-2.8,0.6-4.6,0.6h-3.5l-1,5.4c-0.1,0.3-0.3,0.6-0.6,0.6h-4.7c-0.2,0-0.4-0.2-0.5-0.4
		c-0.1-0.1-0.2-0.4-0.1-0.6l4.2-21.6c0.1-0.3,0.3-0.5,0.6-0.5h9.1c2.9,0,5.1,0.7,6.5,2.3c0.7,0.9,1.2,1.8,1.4,3l2.1-10.7
		C34.2,4.3,34.4,4,34.7,4h4.7c0.2,0,0.4,0.1,0.5,0.3C40,4.4,40.1,4.7,40,4.9l-1,5.1h3.4c2.8,0,4.7,0.4,5.9,1.4
		c1.2,1.1,1.5,2.7,1.1,5l-2,10.1c-0.1,0.3-0.3,0.5-0.6,0.5H42.1z M68.7,18.7c-0.2,1.1-0.6,2.2-1.1,3.1c-0.5,0.9-1.2,1.8-2,2.6
		c-1,0.9-2.1,1.6-3.4,2C61,26.8,59.5,27,57.6,27h-3.5l-1,5.4C53,32.7,52.8,33,52.5,33h-4.7c-0.2,0-0.4-0.2-0.5-0.4
		c-0.1-0.1-0.2-0.4-0.1-0.6l4.2-21.6c0.1-0.3,0.3-0.5,0.6-0.5H61c2.9,0,5.1,0.7,6.5,2.3C68.9,13.9,69.3,16,68.7,18.7z"/>
</g>
<g>
	<path fill="#FFFFFF" d="M22.4,13.9c1.8,0,3,0.3,3.6,1c0.6,0.7,0.7,1.8,0.4,3.4c-0.3,1.7-1,2.9-1.9,3.6c-0.9,0.7-2.3,1.1-4.2,1.1
		h-2.9l1.8-9.1H22.4z M10.9,32.1h4.7l1.1-5.8h4c1.8,0,3.2-0.2,4.4-0.6c1.2-0.4,2.2-1,3.1-1.9c0.8-0.7,1.4-1.5,1.9-2.4
		c0.5-0.9,0.8-1.8,1-2.9c0.5-2.6,0.1-4.6-1.1-6c-1.3-1.4-3.2-2.1-6-2.1h-9.1L10.9,32.1z"/>
	<path fill="#FFFFFF" d="M34.7,4.7h4.7l-1.1,5.8h4.2c2.6,0,4.4,0.5,5.4,1.4c1,0.9,1.3,2.4,0.9,4.4l-2,10.1h-4.8l1.9-9.6
		c0.2-1.1,0.1-1.8-0.2-2.2c-0.4-0.4-1.2-0.6-2.3-0.6h-3.7l-2.4,12.4h-4.7L34.7,4.7z"/>
	<path fill="#FFFFFF" d="M59.2,13.9c1.8,0,3,0.3,3.6,1c0.6,0.7,0.7,1.8,0.4,3.4c-0.3,1.7-1,2.9-1.9,3.6c-0.9,0.7-2.3,1.1-4.2,1.1
		h-2.9l1.8-9.1H59.2z M47.7,32.1h4.7l1.1-5.8h4c1.8,0,3.2-0.2,4.4-0.6c1.2-0.4,2.2-1,3.1-1.9c0.8-0.7,1.4-1.5,1.9-2.4
		c0.5-0.9,0.8-1.8,1-2.9c0.5-2.6,0.1-4.6-1.1-6c-1.3-1.4-3.2-2.1-6-2.1h-9.1L47.7,32.1z"/>
</g>
</svg>
