<?xml version="1.0" encoding="utf-8"?>
<!-- Generator: Adobe Illustrator 18.1.0, SVG Export Plug-In . SVG Version: 6.00 Build 0)  -->
<svg version="1.1" baseProfile="tiny" id="Layer_1" xmlns="http://www.w3.org/2000/svg" xmlns:xlink="http://www.w3.org/1999/xlink"
	 x="0px" y="0px" width="40.9px" height="40px" viewBox="0 0 40.9 40" xml:space="preserve">
<rect x="1.6" y="1.8" fill="#593B62" width="37.8" height="36.7"/>
<g>
	<path fill="#DC85FC" d="M0,0v40h40.9V0H0z M37.7,36.8H3.3V3.3h34.3V36.8z"/>
</g>
<path fill="#DC85FC" d="M10.7,11.4c1.1-0.2,2.7-0.4,4.8-0.4c2.3,0,4,0.5,5.1,1.4c1,0.8,1.7,2.2,1.7,3.8c0,1.6-0.5,3-1.5,3.9
	c-1.3,1.3-3.2,1.8-5.5,1.8c-0.6,0-1.1,0-1.5-0.1v6.5h-3.1V11.4z M13.9,19.4c0.4,0.1,0.9,0.1,1.5,0.1c2.4,0,3.8-1.2,3.8-3.2
	c0-1.9-1.3-2.9-3.5-2.9c-0.9,0-1.5,0.1-1.8,0.2V19.4z"/>
<path fill="#DC85FC" d="M24.6,20c0-1.7,0-2.9-0.1-4h2.7l0.1,2.4h0.1c0.6-1.8,2.1-2.7,3.4-2.7c0.3,0,0.5,0,0.7,0.1v3
	c-0.3-0.1-0.5-0.1-0.9-0.1c-1.5,0-2.5,1-2.8,2.4c-0.1,0.3-0.1,0.6-0.1,1v6.5h-3.2V20z"/>
</svg>
