<?xml version="1.0" encoding="utf-8"?>
<!-- Generator: Adobe Illustrator 21.0.2, SVG Export Plug-In . SVG Version: 6.00 Build 0)  -->
<svg version="1.1" id="Layer_1" xmlns="http://www.w3.org/2000/svg" xmlns:xlink="http://www.w3.org/1999/xlink" x="0px" y="0px"
	 viewBox="0 0 57.1 40" style="enable-background:new 0 0 57.1 40;" xml:space="preserve">
<style type="text/css">
	.st0{fill:#00A1E0;}
	.st1{fill:#FFFFFF;}
</style>
<g>
	<g>
		<path class="st0" d="M23.8,4.4c1.8-1.9,4.4-3.1,7.2-3.1c3.8,0,7.1,2.1,8.8,5.2c1.5-0.7,3.2-1,5-1c6.8,0,12.3,5.6,12.3,12.4
			s-5.5,12.4-12.3,12.4c-0.8,0-1.6-0.1-2.4-0.3c-1.5,2.7-4.5,4.6-7.8,4.6c-1.4,0-2.7-0.3-3.9-0.9C29,37.4,25.4,40,21.1,40
			c-4.4,0-8.2-2.8-9.6-6.7c-0.6,0.1-1.3,0.2-2,0.2c-5.3,0-9.5-4.3-9.5-9.7c0-3.6,1.9-6.7,4.8-8.4c-0.6-1.3-0.9-2.8-0.9-4.4
			C3.9,5,8.8,0,14.9,0C18.6,0,21.7,1.7,23.8,4.4z"/>
	</g>
	<g>
		<g>
			<path class="st1" d="M8.3,20.7c0,0.1,0,0.1,0,0.1C8.4,20.9,8.5,21,8.6,21c0.6,0.3,1.1,0.4,1.7,0.4c1.2,0,1.9-0.6,1.9-1.6v0
				c0-0.9-0.8-1.3-1.6-1.5l-0.1,0c-0.6-0.2-1.1-0.4-1.1-0.7v0c0-0.3,0.3-0.6,0.8-0.6c0.5,0,1.1,0.2,1.5,0.4c0,0,0.1,0.1,0.1,0
				c0-0.1,0.2-0.6,0.2-0.7c0-0.1,0-0.1-0.1-0.1c-0.4-0.3-1-0.4-1.7-0.4h-0.1c-1.1,0-1.8,0.7-1.8,1.6v0c0,1,0.8,1.3,1.6,1.5l0.1,0
				c0.6,0.2,1,0.3,1,0.7v0c0,0.4-0.3,0.6-0.8,0.6c-0.2,0-0.8,0-1.5-0.4c-0.1,0-0.1-0.1-0.2-0.1c0,0-0.1-0.1-0.1,0.1L8.3,20.7z"/>
			<path class="st1" d="M25.4,20.7c0,0.1,0,0.1,0,0.1c0.1,0.1,0.2,0.1,0.3,0.2c0.6,0.3,1.1,0.4,1.7,0.4c1.2,0,1.9-0.6,1.9-1.6v0
				c0-0.9-0.8-1.3-1.6-1.5l-0.1,0c-0.6-0.2-1.1-0.4-1.1-0.7v0c0-0.3,0.3-0.6,0.8-0.6c0.5,0,1.1,0.2,1.5,0.4c0,0,0.1,0.1,0.1,0
				c0-0.1,0.2-0.6,0.2-0.7c0-0.1,0-0.1-0.1-0.1c-0.4-0.3-1-0.4-1.7-0.4h-0.1c-1.1,0-1.8,0.7-1.8,1.6v0c0,1,0.8,1.3,1.6,1.5l0.1,0
				c0.6,0.2,1,0.3,1,0.7v0c0,0.4-0.3,0.6-0.8,0.6c-0.2,0-0.8,0-1.5-0.4c-0.1,0-0.1-0.1-0.2-0.1c0,0-0.1,0-0.1,0.1L25.4,20.7z"/>
			<path class="st1" d="M38.1,17.7c-0.1-0.3-0.3-0.6-0.4-0.8c-0.2-0.2-0.5-0.4-0.8-0.6c-0.3-0.1-0.7-0.2-1-0.2s-0.8,0.1-1,0.2
				c-0.3,0.1-0.5,0.3-0.8,0.6c-0.2,0.2-0.4,0.5-0.4,0.8c-0.1,0.3-0.1,0.7-0.1,1s0,0.7,0.1,1c0.1,0.3,0.3,0.6,0.4,0.8
				c0.2,0.2,0.5,0.4,0.8,0.6c0.3,0.1,0.7,0.2,1,0.2s0.8-0.1,1-0.2c0.3-0.1,0.5-0.3,0.8-0.6c0.2-0.2,0.4-0.5,0.4-0.8
				c0.1-0.3,0.1-0.7,0.1-1S38.2,18,38.1,17.7 M37.1,18.8c0,0.6-0.1,1-0.3,1.3c-0.2,0.3-0.5,0.5-0.9,0.5s-0.7-0.1-0.9-0.5
				c-0.2-0.3-0.3-0.8-0.3-1.3c0-0.6,0.1-1,0.3-1.3c0.2-0.3,0.5-0.5,0.9-0.5s0.8,0.1,0.9,0.5C37,17.8,37.1,18.2,37.1,18.8"/>
			<path class="st1" d="M46.1,20.4c0-0.1-0.1-0.1-0.1-0.1c-0.1,0.1-0.3,0.1-0.5,0.1s-0.3,0-0.5,0c-0.5,0-0.8-0.1-1.1-0.4
				s-0.4-0.7-0.4-1.3c0-0.5,0.1-1,0.4-1.3c0.2-0.3,0.6-0.5,1.1-0.5c0.4,0,0.7,0,1,0.1c0,0,0.1,0,0.1-0.1c0.1-0.2,0.1-0.4,0.2-0.7
				c0-0.1,0-0.1-0.1-0.1c-0.1,0-0.4-0.1-0.7-0.2c-0.2,0-0.5,0-0.7,0c-0.4,0-0.8,0.1-1.1,0.2s-0.6,0.3-0.8,0.6
				c-0.2,0.2-0.4,0.5-0.5,0.8c-0.1,0.3-0.2,0.7-0.2,1c0,0.8,0.2,1.5,0.7,2c0.4,0.5,1.1,0.7,1.9,0.7c0.5,0,1-0.1,1.4-0.3
				c0,0,0.1,0,0-0.1L46.1,20.4z"/>
			<path class="st1" d="M51.1,17.5c-0.1-0.3-0.3-0.6-0.4-0.8c-0.2-0.2-0.4-0.4-0.6-0.5c-0.3-0.1-0.6-0.2-0.9-0.2
				c-0.4,0-0.8,0.1-1.1,0.2c-0.3,0.1-0.6,0.3-0.8,0.6c-0.2,0.3-0.4,0.5-0.4,0.9c-0.1,0.3-0.1,0.7-0.1,1c0,0.4,0,0.7,0.1,1
				c0.1,0.3,0.3,0.6,0.5,0.8c0.2,0.2,0.5,0.4,0.8,0.5c0.3,0.1,0.7,0.2,1.2,0.2c1,0,1.5-0.2,1.7-0.3c0,0,0.1-0.1,0-0.2l-0.2-0.6
				c0-0.1-0.1-0.1-0.1-0.1c-0.2,0.1-0.6,0.3-1.4,0.3c-0.5,0-0.9-0.1-1.1-0.4c-0.3-0.3-0.4-0.6-0.4-1.1h3.3c0,0,0.1,0,0.1-0.1
				C51.2,18.9,51.4,18.3,51.1,17.5z M47.8,18.2c0-0.3,0.1-0.6,0.3-0.8c0.2-0.3,0.5-0.5,0.9-0.5c0.4,0,0.7,0.2,0.9,0.5
				c0.1,0.2,0.2,0.5,0.2,0.8H47.8z"/>
			<path class="st1" d="M24.6,17.5c-0.1-0.3-0.3-0.6-0.4-0.8c-0.2-0.2-0.4-0.4-0.6-0.5c-0.3-0.1-0.6-0.2-0.9-0.2
				c-0.4,0-0.8,0.1-1.1,0.2c-0.3,0.1-0.6,0.3-0.8,0.6c-0.2,0.3-0.4,0.5-0.4,0.9c-0.1,0.3-0.1,0.7-0.1,1c0,0.4,0,0.7,0.1,1
				c0.1,0.3,0.3,0.6,0.5,0.8c0.2,0.2,0.5,0.4,0.8,0.5c0.3,0.1,0.7,0.2,1.2,0.2c1,0,1.5-0.2,1.7-0.3c0,0,0.1-0.1,0-0.2l-0.2-0.6
				c0-0.1-0.1-0.1-0.1-0.1c-0.2,0.1-0.6,0.3-1.4,0.3c-0.5,0-0.9-0.1-1.1-0.4c-0.3-0.3-0.4-0.6-0.4-1.1h3.3c0,0,0.1,0,0.1-0.1
				C24.7,18.9,24.8,18.3,24.6,17.5z M21.3,18.2c0-0.3,0.1-0.6,0.3-0.8c0.2-0.3,0.5-0.5,0.9-0.5s0.7,0.2,0.9,0.5
				c0.1,0.2,0.2,0.5,0.2,0.8H21.3z"/>
			<path class="st1" d="M15.5,18.1c-0.1,0-0.3,0-0.5,0c-0.3,0-0.6,0-0.8,0.1c-0.3,0.1-0.5,0.2-0.7,0.3c-0.2,0.1-0.4,0.3-0.5,0.5
				c-0.1,0.2-0.2,0.5-0.2,0.8c0,0.3,0,0.5,0.1,0.8s0.3,0.4,0.4,0.5c0.2,0.1,0.4,0.2,0.7,0.3c0.3,0.1,0.5,0.1,0.9,0.1
				c0.3,0,0.7,0,1-0.1c0.3-0.1,0.7-0.1,0.8-0.2c0.1,0,0.2-0.1,0.2-0.1c0.1,0,0.1-0.1,0.1-0.1v-3c0-0.7-0.2-1.2-0.5-1.5
				c-0.4-0.3-0.9-0.5-1.5-0.5c-0.3,0-0.7,0-0.9,0.1c0,0-0.7,0.1-1,0.4c0,0-0.1,0,0,0.1l0.2,0.6c0,0.1,0.1,0.1,0.1,0.1s0,0,0.1,0
				C14.2,17,15,17,15,17c0.4,0,0.6,0.1,0.8,0.2s0.3,0.4,0.3,0.8v0.1C15.8,18.1,15.5,18.1,15.5,18.1z M14.2,20.4
				c-0.1-0.1-0.1-0.1-0.2-0.2c-0.1-0.1-0.1-0.3-0.1-0.4c0-0.3,0.1-0.5,0.3-0.7c0,0,0.3-0.3,1-0.2c0.5,0,0.9,0.1,0.9,0.1v1.5l0,0
				c0,0-0.4,0.1-0.9,0.1C14.5,20.6,14.2,20.4,14.2,20.4z"/>
			<path class="st1" d="M42.2,16.4c0-0.1,0-0.1,0-0.1c-0.1,0-0.3-0.1-0.5-0.1c-0.4,0-0.7,0-0.9,0.1c-0.2,0.1-0.4,0.3-0.6,0.4v-0.4
				c0-0.1,0-0.1-0.1-0.1h-0.8c-0.1,0-0.1,0-0.1,0.1v4.9c0,0.1,0,0.1,0.1,0.1h0.9c0.1,0,0.1,0,0.1-0.1v-2.5c0-0.3,0-0.7,0.1-0.9
				c0.1-0.2,0.2-0.4,0.3-0.5c0.1-0.1,0.3-0.2,0.4-0.3c0.1,0,0.3-0.1,0.4-0.1c0.2,0,0.4,0,0.4,0c0.1,0,0.1,0,0.1-0.1
				C42,16.9,42.2,16.5,42.2,16.4z"/>
			<path class="st1" d="M34,14.1c-0.1,0-0.2-0.1-0.3-0.1c-0.1,0-0.3,0-0.4,0c-0.6,0-1.1,0.2-1.4,0.5c-0.3,0.3-0.5,0.8-0.7,1.5l0,0.2
				h-0.8c0,0-0.1,0-0.1,0.1L30.2,17c0,0.1,0,0.1,0.1,0.1H31l-0.7,4.1c-0.1,0.3-0.1,0.6-0.2,0.8c-0.1,0.2-0.1,0.4-0.2,0.5
				c-0.1,0.1-0.2,0.2-0.3,0.2c-0.1,0-0.3,0.1-0.4,0.1c-0.1,0-0.2,0-0.3,0c-0.1,0-0.1,0-0.2-0.1c0,0-0.1,0-0.1,0.1
				c0,0.1-0.2,0.6-0.3,0.7c0,0.1,0,0.1,0,0.1c0.1,0,0.2,0.1,0.3,0.1c0.2,0,0.3,0,0.5,0c0.3,0,0.6,0,0.8-0.1c0.2-0.1,0.4-0.2,0.6-0.4
				c0.2-0.2,0.3-0.4,0.4-0.7c0.1-0.3,0.2-0.7,0.3-1.1l0.8-4.2h1.1c0,0,0.1,0,0.1-0.1l0.1-0.7c0-0.1,0-0.1-0.1-0.1h-1
				c0,0,0.1-0.4,0.2-0.8c0-0.1,0.1-0.3,0.2-0.4c0.1-0.1,0.2-0.1,0.3-0.2c0.1,0,0.2,0,0.4,0c0.1,0,0.2,0,0.3,0c0.1,0,0.1,0,0.2,0
				c0.1,0,0.1,0,0.1,0l0.3-0.7C34.1,14.1,34.1,14.1,34,14.1z"/>
			<path class="st1" d="M19.2,21.2c0,0.1,0,0.1-0.1,0.1h-0.9c-0.1,0-0.1,0-0.1-0.1v-7.1c0-0.1,0-0.1,0.1-0.1h0.9
				c0.1,0,0.1,0,0.1,0.1V21.2z"/>
		</g>
	</g>
</g>
</svg>
