<?xml version="1.0" encoding="utf-8"?>
<!-- Generator: Adobe Illustrator 21.0.2, SVG Export Plug-In . SVG Version: 6.00 Build 0)  -->
<svg version="1.1" id="Layer_1" xmlns="http://www.w3.org/2000/svg" xmlns:xlink="http://www.w3.org/1999/xlink" x="0px" y="0px"
	 viewBox="0 0 40 40" style="enable-background:new 0 0 40 40;" xml:space="preserve">
<style type="text/css">
	.st0{fill:#FFFFFF;}
	.st1{fill:#00A1E0;}
</style>
<path class="st0" d="M20,0c11,0,20,9,20,20c0,11-9,20-20,20C9,40,0,31,0,20C0,9,9,0,20,0z"/>
<g>
	<g>
		<path class="st1" d="M18,13.2c0.8-0.9,2.1-1.4,3.4-1.4c1.8,0,3.3,1,4.1,2.4c0.7-0.3,1.5-0.5,2.3-0.5c3.2,0,5.7,2.6,5.7,5.8
			s-2.6,5.8-5.7,5.8c-0.4,0-0.7,0-1.1-0.1c-0.7,1.3-2.1,2.1-3.6,2.1c-0.7,0-1.3-0.1-1.8-0.4c-0.8,1.7-2.5,2.9-4.5,2.9
			c-2.1,0-3.8-1.3-4.5-3.1c-0.3,0-0.6,0.1-0.9,0.1c-2.5,0-4.4-2-4.4-4.5c0-1.7,0.9-3.1,2.2-3.9c-0.3-0.6-0.4-1.3-0.4-2.1
			c0-2.8,2.3-5.1,5.1-5.1C15.6,11.2,17.1,12,18,13.2z"/>
	</g>
</g>
</svg>
