<svg baseProfile="tiny" xmlns="http://www.w3.org/2000/svg" width="40" height="40" viewBox="0 0 40 40" overflow="inherit"><path fill="#c69" d="M20 0c11.046 0 20 8.955 20 20 0 11.043-8.954 20-20 20-11.046-.002-20-8.957-20-20 0-11.046 8.954-20 20-20z"/><path fill="#fff" d="M32.546 8.561c-.907-3.554-6.795-4.721-12.371-2.741-3.316 1.178-6.908 3.029-9.49 5.444-3.07 2.873-3.56 5.373-3.358 6.414.712 3.686 5.762 6.096 7.838 7.883v.01c-.613.301-5.092 2.568-6.14 4.885-1.107 2.447.177 4.203 1.023 4.438 2.632.732 5.331-.586 6.78-2.748 1.4-2.088 1.284-4.783.676-6.125.84-.221 1.816-.32 3.061-.176 3.509.41 4.196 2.6 4.064 3.518-.13.918-.866 1.422-1.112 1.572-.247.152-.322.207-.302.318.032.164.146.16.354.123.288-.049 1.843-.746 1.908-2.436.085-2.15-1.975-4.555-5.619-4.49-1.502.025-2.446.168-3.128.422l-.154-.172c-2.255-2.402-6.421-4.105-6.246-7.336.064-1.175.475-4.27 8.008-8.025 6.17-3.074 11.109-2.227 11.964-.352 1.22 2.677-2.639 7.657-9.048 8.377-2.441.271-3.728-.675-4.047-1.027-.337-.371-.387-.386-.515-.318-.203.113-.073.44 0 .637.192.499.979 1.382 2.315 1.822 1.179.385 4.045.6 7.513-.742 3.883-1.507 6.915-5.686 6.026-9.175zm-16.52 18.101c.29 1.076.258 2.078-.043 2.988l-.111.299-.128.293c-.231.48-.542.93-.925 1.346-1.161 1.266-2.783 1.748-3.48 1.344-.753-.438-.376-2.223.972-3.646 1.449-1.533 3.535-2.52 3.535-2.52l-.004-.004.184-.1z"/></svg>