<?xml version="1.0" encoding="utf-8"?>
<!-- Generator: Adobe Illustrator 15.1.0, SVG Export Plug-In . SVG Version: 6.00 Build 0)  -->
<!DOCTYPE svg PUBLIC "-//W3C//DTD SVG 1.1 Tiny//EN" "http://www.w3.org/Graphics/SVG/1.1/DTD/svg11-tiny.dtd">
<svg version="1.1" baseProfile="tiny" id="Layer_1" xmlns="http://www.w3.org/2000/svg" xmlns:xlink="http://www.w3.org/1999/xlink"
	 x="0px" y="0px" width="37.1px" height="40px" viewBox="0 0 37.1 40" overflow="inherit" xml:space="preserve">
<g>
	<path fill="#FFFFFF" d="M27.5,5.2c-1.101-0.9-2.3-1.8-3.4-2.7c-0.1-0.1-0.2-0.1-0.3-0.1c-0.8,0.1-1.6,0.2-2.5,0.3
		C20.2,2.9,19.1,3,18,3.2c-1,0.1-1.9,0.3-2.9,0.4C14,3.7,12.9,3.8,11.8,4c-1,0.1-2,0.3-3,0.4C8,4.5,7.2,4.6,6.3,4.7
		C5.5,4.8,4.6,4.9,3.7,5C3.4,5,3,5.1,2.7,5.1v0.1C3.1,6.3,3.6,7.3,4,8.4l0.1,0.1C4.4,8.5,4.7,8.4,5,8.4C6.2,8.2,7.3,8,8.4,7.9
		c1.2-0.2,2.301-0.3,3.5-0.5C12.9,7.2,14,7.1,15,6.9c1.399-0.2,2.8-0.4,4.2-0.6c0.199,0,0.3,0,0.399,0.1c1.7,1.8,3.5,3.6,5.2,5.4
		c0.1,0.1,0.2,0.2,0.4,0.1c0.899-0.2,1.8-0.3,2.8-0.5c1.6-0.3,3.1-0.6,4.7-0.8c0.399-0.1,0.8-0.1,1.399-0.2
		c-0.1-0.1-0.2-0.2-0.2-0.2C31.8,8.5,29.7,6.9,27.5,5.2z"/>
	<path fill="#FFFFFF" d="M24.8,18.8c-1.1-1.4-2.2-2.7-3.3-4.1C20.9,14,20.4,13.3,19.8,12.6c-0.1-0.1-0.2-0.1-0.3-0.1
		c-0.5,0.1-1,0.2-1.5,0.3c-1.4,0.2-2.8,0.5-4.2,0.7c-1.3,0.2-2.6,0.5-3.9,0.7c-1.1,0.2-2.3,0.4-3.399,0.6C6.1,14.9,5.6,15,5.2,15
		c0,0,0,0,0,0.1C5.7,16.3,6.1,17.5,6.6,18.7c0,0,0.101,0.1,0.2,0.1c0.2,0,0.4-0.1,0.7-0.1c2.3-0.4,4.5-0.9,6.8-1.3
		c0.2,0,0.2,0,0.3,0.1c0.601,1,1.2,2.1,1.8,3.1c0.101,0.101,0.2,0.2,0.301,0.2c2.3-0.5,4.699-1,7-1.5c0.399-0.2,0.8-0.3,1.199-0.4
		C24.9,18.8,24.8,18.8,24.8,18.8z"/>
	<path fill="#FFFFFF" d="M14.8,24c-1.9,0.6-3.8,1-5.8,1.5c-0.5,0.1-0.9,0.2-1.4,0.3c0.5,1.3,1,2.7,1.5,4c2.601-0.7,5.2-1.3,7.9-2
		c-0.601-1.2-1.3-2.5-1.9-3.7C15,24,14.9,24,14.8,24z"/>
</g>
<path fill="#E72B2D" d="M8.6,40c-0.5-1.5-1-3-1.399-4.5c-1-3-1.9-5.9-2.9-8.9C4.1,25.9,3.8,25.1,3.6,24.4c-0.1-0.5-0.2-1-0.3-1.5
	C3.1,21.6,2.9,20.3,2.7,19.1c-0.2-1.3-0.4-2.5-0.601-3.8c-0.2-1.2-0.399-2.4-0.6-3.5C1.2,10.4,1,9.2,0.8,7.9
	C0.6,6.7,0.4,5.6,0.2,4.4C0.1,4,0.1,3.6,0,3.2C0.4,3.1,0.8,3,1.2,3C2,2.9,2.9,2.8,3.8,2.7C4.5,2.6,5.3,2.5,6,2.4
	C6.8,2.3,7.7,2.2,8.5,2c0.8,0,1.5-0.1,2.3-0.2c0.8-0.1,1.7-0.2,2.5-0.3s1.5-0.2,2.3-0.3c0.8-0.1,1.7-0.2,2.5-0.3
	c0.7-0.1,1.5-0.2,2.2-0.3c0.8-0.1,1.7-0.2,2.5-0.3c0.5-0.1,1-0.1,1.5-0.2c0.1,0,0.2,0,0.3,0.1c3,2.3,6,4.7,9,7
	c1.101,0.9,2.2,1.7,3.3,2.6C37,9.9,37.1,10,37.1,10.2c-0.1,0.8-0.2,1.6-0.3,2.5c-0.1,0.7-0.2,1.3-0.2,2c-0.1,0.8-0.2,1.7-0.3,2.5
	c-0.1,0.8-0.2,1.6-0.3,2.4c-0.101,0.7-0.2,1.4-0.2,2c-0.1,0.7-0.2,1.301-0.2,2c-0.1,0.801-0.2,1.601-0.3,2.5
	C35.2,26.9,35.1,27.7,35,28.5c-0.101,0.7-0.2,1.4-0.2,2c-0.1,0.7-0.2,1.4-0.2,2c0,0.2-0.1,0.3-0.2,0.3c-3,0.8-6,1.7-8.899,2.5
	c-2.7,0.8-5.4,1.5-8,2.3C14.7,38.4,11.9,39.2,9,40C8.7,40,8.7,40,8.6,40z M34.1,10.4c-0.1-0.1-0.2-0.2-0.2-0.2
	c-2.1-1.7-4.199-3.3-6.399-5c-1.101-0.9-2.3-1.8-3.4-2.7c-0.1-0.1-0.2-0.1-0.3-0.1c-0.8,0.1-1.6,0.2-2.5,0.3C20.2,2.9,19.1,3,18,3.2
	c-1,0.1-1.9,0.3-2.9,0.4C14,3.7,12.9,3.8,11.8,4c-1,0.1-2,0.3-3,0.4C8,4.5,7.2,4.6,6.3,4.7C5.5,4.8,4.6,4.9,3.7,5
	C3.4,5,3,5.1,2.7,5.1v0.1C3.1,6.3,3.6,7.3,4,8.4l0.1,0.1C4.4,8.5,4.7,8.4,5,8.4C6.2,8.2,7.3,8,8.4,7.9c1.2-0.2,2.301-0.3,3.5-0.5
	C12.9,7.2,14,7.1,15,6.9c1.399-0.2,2.8-0.4,4.2-0.6c0.199,0,0.3,0,0.399,0.1c1.7,1.8,3.5,3.6,5.2,5.4c0.1,0.1,0.2,0.2,0.4,0.1
	c0.899-0.2,1.8-0.3,2.8-0.5c1.6-0.3,3.1-0.6,4.7-0.8C33.1,10.5,33.5,10.5,34.1,10.4z M24.9,18.9c0-0.1-0.1-0.1-0.1-0.1
	c-1.1-1.4-2.2-2.7-3.3-4.1C20.9,14,20.4,13.3,19.8,12.6c-0.1-0.1-0.2-0.1-0.3-0.1c-0.5,0.1-1,0.2-1.5,0.3c-1.4,0.2-2.8,0.5-4.2,0.7
	c-1.3,0.2-2.6,0.5-3.9,0.7c-1.1,0.2-2.3,0.4-3.399,0.6C6.1,14.9,5.6,15,5.2,15c0,0,0,0,0,0.1C5.7,16.3,6.1,17.5,6.6,18.7
	c0,0,0.101,0.1,0.2,0.1c0.2,0,0.4-0.1,0.7-0.1c2.3-0.4,4.5-0.9,6.8-1.3c0.2,0,0.2,0,0.3,0.1c0.601,1,1.2,2.1,1.8,3.1
	c0.101,0.101,0.2,0.2,0.301,0.2c2.3-0.5,4.699-1,7-1.5C24.1,19.1,24.5,19,24.9,18.9z M9.1,29.8c2.601-0.7,5.2-1.3,7.9-2
	c-0.601-1.2-1.3-2.5-1.9-3.7C15,24,14.9,24,14.8,24c-1.9,0.6-3.8,1-5.8,1.5c-0.5,0.1-0.9,0.2-1.4,0.3C8.1,27.1,8.6,28.5,9.1,29.8z"
	/>
</svg>
